<?xml version="1.0" encoding="UTF-8" standalone="no" ?>
<!DOCTYPE svg PUBLIC "-//W3C//DTD SVG 1.1//EN" "http://www.w3.org/Graphics/SVG/1.1/DTD/svg11.dtd">
<svg xmlns="http://www.w3.org/2000/svg" xmlns:xlink="http://www.w3.org/1999/xlink" version="1.1" width="500" height="500" viewBox="0 0 500 500" xml:space="preserve">
<desc>Created with Fabric.js 5.3.0</desc>
<defs>
</defs>
<g transform="matrix(0.7653312908 0 0 0.7653312908 190.9425430001 13.5770879795)" id="rwZEJ1ZJFuks0G3XY-4Km"  >
<path style="stroke: rgb(210,232,173); stroke-width: 2; stroke-dasharray: none; stroke-linecap: butt; stroke-dashoffset: 0; stroke-linejoin: miter; stroke-miterlimit: 4; fill: none; fill-rule: nonzero; opacity: 1;" vector-effect="non-scaling-stroke"  transform=" translate(-589.505, -341.02)" d="M 635.29 328.15 Q 587.24 334.13 543.72 353.89" stroke-linecap="round" />
</g>
<g transform="matrix(0.7653312908 0 0 0.7653312908 90.3435714746 97.698476813)" id="pQPaMC_Mpi9Bnan5yLTOP"  >
<path style="stroke: rgb(252,247,167); stroke-width: 2; stroke-dasharray: none; stroke-linecap: butt; stroke-dashoffset: 0; stroke-linejoin: miter; stroke-miterlimit: 4; fill: none; fill-rule: nonzero; opacity: 1;" vector-effect="non-scaling-stroke"  transform=" translate(-458.06, -450.935)" d="M 543.72 353.89 Q 462.9 390.2 413.74 462 Q 387.17 500.8 372.4 547.98" stroke-linecap="round" />
</g>
<g transform="matrix(0.7653312908 0 0 0.7653312908 17.7018138757 248.2276617534)" id="X_QDrCdR-JMoru8YooBVS"  >
<path style="stroke: rgb(255,236,141); stroke-width: 2; stroke-dasharray: none; stroke-linecap: butt; stroke-dashoffset: 0; stroke-linejoin: miter; stroke-miterlimit: 4; fill: none; fill-rule: nonzero; opacity: 1;" vector-effect="non-scaling-stroke"  transform=" translate(-363.1445581937, -647.62)" d="M 372.4 547.98 Q 366.45 567.19 362.95 587 Q 350.31 658.58 366.66 729.19 C 368.03 735.12 369.98 741.25 371.78 747.26" stroke-linecap="round" />
</g>
<g transform="matrix(0.7653312908 0 0 0.7653312908 24.8312129781 326.352679923)" id="YlU72TxRhTMUjNe5JCNA1"  >
<path style="stroke: rgb(255,213,128); stroke-width: 2; stroke-dasharray: none; stroke-linecap: butt; stroke-dashoffset: 0; stroke-linejoin: miter; stroke-miterlimit: 4; fill: none; fill-rule: nonzero; opacity: 1;" vector-effect="non-scaling-stroke"  transform=" translate(-372.46, -749.7)" d="M 371.78 747.26 L 373.14 752.14" stroke-linecap="round" />
</g>
<g transform="matrix(0.7653312908 0 0 0.7653312908 88.0590575714 400.9112542774)" id="0NqtTJrOrhLzJ2w5K2rp7"  >
<path style="stroke: rgb(252,206,185); stroke-width: 2; stroke-dasharray: none; stroke-linecap: butt; stroke-dashoffset: 0; stroke-linejoin: miter; stroke-miterlimit: 4; fill: none; fill-rule: nonzero; opacity: 1;" vector-effect="non-scaling-stroke"  transform=" translate(-455.075, -847.12)" d="M 373.14 752.14 Q 389.98 804.41 422.61 848.11 Q 423.68 849.53 425.88 852.12 C 428.72 855.46 431.45 859.49 433.94 862.3 Q 445.29 875.11 457.65 886.95 C 460.3 889.49 463.21 892.82 465.47 894.78 Q 497.89 923.11 537.01 942.1" stroke-linecap="round" />
</g>
<g transform="matrix(0.7653312908 0 0 0.7653312908 153.8584153021 475.0297631395)" id="b-OkP0mfCfQzlY__SHTiN"  >
<path style="stroke: rgb(255,179,128); stroke-width: 2; stroke-dasharray: none; stroke-linecap: butt; stroke-dashoffset: 0; stroke-linejoin: miter; stroke-miterlimit: 4; fill: none; fill-rule: nonzero; opacity: 1;" vector-effect="non-scaling-stroke"  transform=" translate(-541.05, -943.965)" d="M 537.01 942.1 L 545.09 945.83" stroke-linecap="round" />
</g>
<g transform="matrix(0.7653312908 0 0 0.7653312908 226.1363024097 487.4309339508)" id="n32DfDRegYFcRtjkHPWWz"  >
<path style="stroke: rgb(248,163,162); stroke-width: 2; stroke-dasharray: none; stroke-linecap: butt; stroke-dashoffset: 0; stroke-linejoin: miter; stroke-miterlimit: 4; fill: none; fill-rule: nonzero; opacity: 1;" vector-effect="non-scaling-stroke"  transform=" translate(-635.49, -960.1686636417)" d="M 545.09 945.83 C 590.8 966.21 640.4 975.58 690.69 974.41 C 704.02 974.1 714.05 973.86 725.89 972.64" stroke-linecap="round" />
</g>
<g transform="matrix(0.7653312908 0 0 0.7653312908 345.4361440269 482.5003383584)" id="aS5sH0kjBPFISwUXUyOHH"  >
<path style="stroke: rgb(221,128,128); stroke-width: 2; stroke-dasharray: none; stroke-linecap: butt; stroke-dashoffset: 0; stroke-linejoin: miter; stroke-miterlimit: 4; fill: none; fill-rule: nonzero; opacity: 1;" vector-effect="non-scaling-stroke"  transform=" translate(-791.37, -953.7262306046)" d="M 725.89 972.64 Q 728.08 972.68 735.74 971.73 C 779.11 966.38 818.92 955.25 856.85 934.8" stroke-linecap="round" />
</g>
<g transform="matrix(0.7653312908 0 0 0.7653312908 426.4433395361 418.2574879844)" id="4TzbJAcOE2g93Jjr5bSNw"  >
<path style="stroke: rgb(191,128,128); stroke-width: 2; stroke-dasharray: none; stroke-linecap: butt; stroke-dashoffset: 0; stroke-linejoin: miter; stroke-miterlimit: 4; fill: none; fill-rule: nonzero; opacity: 1;" vector-effect="non-scaling-stroke"  transform=" translate(-897.2159212081, -869.785)" d="M 856.85 934.8 Q 901.84 909.25 937.45 871.56 C 937.6218731658781 871.3789074357027 937.6262210646736 871.0962940139981 937.46 870.91 L 879.87 804.77" stroke-linecap="round" />
</g>
<g transform="matrix(0.7653312908 0 0 0.7653312908 407.5466049357 361.8870117571)" id="mJa4Pdrhs3WwrbKTVWLZZ"  >
<path style="stroke: rgb(248,163,162); stroke-width: 2; stroke-dasharray: none; stroke-linecap: butt; stroke-dashoffset: 0; stroke-linejoin: miter; stroke-miterlimit: 4; fill: none; fill-rule: nonzero; opacity: 1;" vector-effect="non-scaling-stroke"  transform=" translate(-872.525, -796.13)" d="M 879.87 804.77 L 865.18 787.49" stroke-linecap="round" />
</g>
<g transform="matrix(0.7653312908 0 0 0.7653312908 392.9708705015 344.9387503213)" id="D5azGThh8xNNfRD0zaf5X"  >
<path style="stroke: rgb(191,128,128); stroke-width: 2; stroke-dasharray: none; stroke-linecap: butt; stroke-dashoffset: 0; stroke-linejoin: miter; stroke-miterlimit: 4; fill: none; fill-rule: nonzero; opacity: 1;" vector-effect="non-scaling-stroke"  transform=" translate(-853.48, -773.985)" d="M 865.18 787.49 L 841.78 760.48" stroke-linecap="round" />
</g>
<g transform="matrix(0.7653312908 0 0 0.7653312908 349.7564391638 356.4207912983)" id="PYct61jPKYBQpJaXfE5nW"  >
<path style="stroke: rgb(221,128,128); stroke-width: 2; stroke-dasharray: none; stroke-linecap: butt; stroke-dashoffset: 0; stroke-linejoin: miter; stroke-miterlimit: 4; fill: none; fill-rule: nonzero; opacity: 1;" vector-effect="non-scaling-stroke"  transform=" translate(-797.015, -788.9877068204)" d="M 841.78 760.48 Q 841.47 759.77 840.45 759.1 C 840.2010736555164 758.9407516103429 839.8805555118643 758.9654068521622 839.67 759.16 C 813.7 783.56 784.55 804.68 752.25 818.98" stroke-linecap="round" />
</g>
<g transform="matrix(0.7653312908 0 0 0.7653312908 246.341048488 371.9032663552)" id="nxf2XOaETO9-AS6GdcbYm"  >
<path style="stroke: rgb(248,163,162); stroke-width: 2; stroke-dasharray: none; stroke-linecap: butt; stroke-dashoffset: 0; stroke-linejoin: miter; stroke-miterlimit: 4; fill: none; fill-rule: nonzero; opacity: 1;" vector-effect="non-scaling-stroke"  transform=" translate(-661.89, -809.2174756042)" d="M 752.25 818.98 Q 717.97 832.13 681.25 831.48 Q 617.38 830.35 571.53 786.74" stroke-linecap="round" />
</g>
<g transform="matrix(0.7653312908 0 0 0.7653312908 166.5246481656 341.1848003396)" id="tWYlOlynECY5gMybjtwnk"  >
<path style="stroke: rgb(255,179,128); stroke-width: 2; stroke-dasharray: none; stroke-linecap: butt; stroke-dashoffset: 0; stroke-linejoin: miter; stroke-miterlimit: 4; fill: none; fill-rule: nonzero; opacity: 1;" vector-effect="non-scaling-stroke"  transform=" translate(-557.6, -769.08)" d="M 571.53 786.74 Q 555.33 770.89 543.67 751.42" stroke-linecap="round" />
</g>
<g transform="matrix(0.7653312908 0 0 0.7653312908 145.7249314429 252.023704956)" id="ueFEEw9avqpOy_iKoipvP"  >
<path style="stroke: rgb(255,213,128); stroke-width: 2; stroke-dasharray: none; stroke-linecap: butt; stroke-dashoffset: 0; stroke-linejoin: miter; stroke-miterlimit: 4; fill: none; fill-rule: nonzero; opacity: 1;" vector-effect="non-scaling-stroke"  transform=" translate(-530.4225972576, -652.58)" d="M 543.67 751.42 C 528.65 724.7 519.67 697.74 517.7 667 C 515.13 626.74 521.84 589.23 541.35 553.74" stroke-linecap="round" />
</g>
<g transform="matrix(0.7653312908 0 0 0.7653312908 155.7717435292 173.2787684407)" id="BUQtKBvKpcPx-n8VZqesW"  >
<path style="stroke: rgb(255,236,141); stroke-width: 2; stroke-dasharray: none; stroke-linecap: butt; stroke-dashoffset: 0; stroke-linejoin: miter; stroke-miterlimit: 4; fill: none; fill-rule: nonzero; opacity: 1;" vector-effect="non-scaling-stroke"  transform=" translate(-543.55, -549.69)" d="M 541.35 553.74 L 545.75 545.64" stroke-linecap="round" />
</g>
<g transform="matrix(0.7653312908 0 0 0.7653312908 166.0960626427 159.0550864003)" id="TStVjDzmvjK9DsbFJZPvk"  >
<path style="stroke: rgb(210,232,173); stroke-width: 2; stroke-dasharray: none; stroke-linecap: butt; stroke-dashoffset: 0; stroke-linejoin: miter; stroke-miterlimit: 4; fill: none; fill-rule: nonzero; opacity: 1;" vector-effect="non-scaling-stroke"  transform=" translate(-557.04, -531.105)" d="M 545.75 545.64 Q 556.21 530.18 568.33 516.57" stroke-linecap="round" />
</g>
<g transform="matrix(0.7653312908 0 0 0.7653312908 232.4617655286 129.3025224032)" id="t7IRONCQMlNIhLQIorQ3x"  >
<path style="stroke: rgb(128,205,158); stroke-width: 2; stroke-dasharray: none; stroke-linecap: butt; stroke-dashoffset: 0; stroke-linejoin: miter; stroke-miterlimit: 4; fill: none; fill-rule: nonzero; opacity: 1;" vector-effect="non-scaling-stroke"  transform=" translate(-643.755, -492.2295948612)" d="M 568.33 516.57 Q 611.72 472.72 672 468.79 Q 693.98 467.35 719.18 470.93" stroke-linecap="round" />
</g>
<g transform="matrix(0.7653312908 0 0 0.7653312908 290.8029698298 113.1437746503)" id="r9FgA8Oxc9mfmvtE2AxFn"  >
<path style="stroke: rgb(165,194,224); stroke-width: 2; stroke-dasharray: none; stroke-linecap: butt; stroke-dashoffset: 0; stroke-linejoin: miter; stroke-miterlimit: 4; fill: none; fill-rule: nonzero; opacity: 1;" vector-effect="non-scaling-stroke"  transform=" translate(-719.985, -471.1161921477)" d="M 719.18 470.93 Q 720.32 470.87 720.79 471.33" stroke-linecap="round" />
</g>
<g transform="matrix(0.7653312908 0 0 0.7653312908 376.1574040576 106.0802946434)" id="BECYKND9rDTiWIp5cRCja"  >
<path style="stroke: rgb(204,128,229); stroke-width: 2; stroke-dasharray: none; stroke-linecap: butt; stroke-dashoffset: 0; stroke-linejoin: miter; stroke-miterlimit: 4; fill: none; fill-rule: nonzero; opacity: 1;" vector-effect="non-scaling-stroke"  transform=" translate(-831.5111263305, -461.8868817937)" d="M 720.79 471.33 Q 743.28 475.05 759 482.24 C 789.23 496.07 819.06 520.09 843.76 543.17 Q 844.11 543.51 844.46 543.16 L 942.08 444.55 C 942.2749968301238 444.35284713132256 942.283796313336 444.0404654772876 942.1 443.84 C 921.11 420.47 897.62 398.39 871.89 380.35" stroke-linecap="round" />
</g>
<g transform="matrix(0.7653312908 0 0 0.7653312908 316.5219278588 22.6582667562)" id="0HZuHidlU3Vr23A2DGd39"  >
<path style="stroke: rgb(165,194,224); stroke-width: 2; stroke-dasharray: none; stroke-linecap: butt; stroke-dashoffset: 0; stroke-linejoin: miter; stroke-miterlimit: 4; fill: none; fill-rule: nonzero; opacity: 1;" vector-effect="non-scaling-stroke"  transform=" translate(-753.59, -352.8856833782)" d="M 871.89 380.35 Q 828.52 350.06 777.24 336.86 C 731.69 325.14 681.76 322.79 635.29 328.15" stroke-linecap="round" />
</g>
<g transform="matrix(0.7653312908 0 0 0.7653312908 349.2398405425 78.4924880692)" id="FQAera_T4SMJZH5jxOryH"  >
<path style="stroke: rgb(114,67,198); stroke-width: 2; stroke-dasharray: none; stroke-linecap: butt; stroke-dashoffset: 0; stroke-linejoin: miter; stroke-miterlimit: 4; fill: none; fill-rule: nonzero; opacity: 1;" vector-effect="non-scaling-stroke"  transform=" translate(-796.34, -425.84)" d="M 871.89 380.35 Q 871.42 382.05 870.1 382.84 Q 805.01 421.6 740.03 460.53 Q 727.57 467.99 720.79 471.33" stroke-linecap="round" />
</g>
<g transform="matrix(0.7653312908 0 0 0.7653312908 271.7615341839 81.2170674646)" id="kJ7qSGytIjsBVg6aUDPzh"  >
<path style="stroke: rgb(37,144,127); stroke-width: 2; stroke-dasharray: none; stroke-linecap: butt; stroke-dashoffset: 0; stroke-linejoin: miter; stroke-miterlimit: 4; fill: none; fill-rule: nonzero; opacity: 1;" vector-effect="non-scaling-stroke"  transform=" translate(-695.105008977, -429.4)" d="M 719.18 470.93 Q 719.95 470.65 719.86 470.51 Q 695.64 430.55 671.71 390.42 Q 670.89 389.04 670.31 387.87" stroke-linecap="round" />
</g>
<g transform="matrix(0.7653312908 0 0 0.7653312908 239.3045622854 26.580066611)" id="AB_nAFR4jNpjw1pWczX_T"  >
<path style="stroke: rgb(120,171,142); stroke-width: 2; stroke-dasharray: none; stroke-linecap: butt; stroke-dashoffset: 0; stroke-linejoin: miter; stroke-miterlimit: 4; fill: none; fill-rule: nonzero; opacity: 1;" vector-effect="non-scaling-stroke"  transform=" translate(-652.6959603903, -358.01)" d="M 670.31 387.87 L 635.2 328.94 Q 635.05 328.7 635.16 328.44 L 635.29 328.15" stroke-linecap="round" />
</g>
<g transform="matrix(0.7653312908 0 0 0.7653312908 213.7608954367 98.6819275218)" id="R_NrePUGF4A8eqP4oicgr"  >
<path style="stroke: rgb(83,181,75); stroke-width: 2; stroke-dasharray: none; stroke-linecap: butt; stroke-dashoffset: 0; stroke-linejoin: miter; stroke-miterlimit: 4; fill: none; fill-rule: nonzero; opacity: 1;" vector-effect="non-scaling-stroke"  transform=" translate(-619.32, -452.22)" d="M 670.31 387.87 L 568.33 516.57" stroke-linecap="round" />
</g>
<g transform="matrix(0.7653312908 0 0 0.7653312908 156.9771403123 169.6243115269)" id="yLB8MR0FoZFl8te1MfJD5"  >
<path style="stroke: rgb(210,212,59); stroke-width: 2; stroke-dasharray: none; stroke-linecap: butt; stroke-dashoffset: 0; stroke-linejoin: miter; stroke-miterlimit: 4; fill: none; fill-rule: nonzero; opacity: 1;" vector-effect="non-scaling-stroke"  transform=" translate(-545.125, -544.915)" d="M 545.75 545.64 L 544.5 544.19" stroke-linecap="round" />
</g>
<g transform="matrix(0.7653312908 0 0 0.7653312908 156.2003290521 96.2481740168)" id="8ixLmI1WE3MWzF4ONjL2o"  >
<path style="stroke: rgb(207,223,84); stroke-width: 2; stroke-dasharray: none; stroke-linecap: butt; stroke-dashoffset: 0; stroke-linejoin: miter; stroke-miterlimit: 4; fill: none; fill-rule: nonzero; opacity: 1;" vector-effect="non-scaling-stroke"  transform=" translate(-544.11, -449.04)" d="M 544.5 544.19 Q 544.39 455.44 544.34 367.25 Q 544.34 358.68 543.72 353.89" stroke-linecap="round" />
</g>
<g transform="matrix(0.7653312908 0 0 0.7653312908 89.2220736608 250.6895774276)" id="FG0w9lzpZ_nqlCyC3oTD3"  >
<path style="stroke: rgb(255,193,14); stroke-width: 2; stroke-dasharray: none; stroke-linecap: butt; stroke-dashoffset: 0; stroke-linejoin: miter; stroke-miterlimit: 4; fill: none; fill-rule: nonzero; opacity: 1;" vector-effect="non-scaling-stroke"  transform=" translate(-456.5946243814, -650.8367973578)" d="M 541.35 553.74 Q 541.47 553.26 540.74 553.03 C 540.5633462076395 552.9763831701858 540.3716631966307 553.0311497447598 540.25 553.17 Q 472.32 632.6 404.43 712.21 Q 404.2 712.49 403.21 713.92 Q 402.58 714.82 401.75 715.47 Q 400 716.82 399.48 717.49 Q 390.44 729.12 380.4 739.93 Q 378.01 742.5 373.8 747.93 Q 372.97 749 371.78 747.26" stroke-linecap="round" />
</g>
<g transform="matrix(0.7653312908 0 0 0.7653312908 90.6420506781 170.9177214084)" id="OEqHHBTSoE5LpPEtSoTY6"  >
<path style="stroke: rgb(251,227,53); stroke-width: 2; stroke-dasharray: none; stroke-linecap: butt; stroke-dashoffset: 0; stroke-linejoin: miter; stroke-miterlimit: 4; fill: none; fill-rule: nonzero; opacity: 1;" vector-effect="non-scaling-stroke"  transform=" translate(-458.45, -546.605)" d="M 544.5 544.19 Q 542.48 546.48 539.08 547.84 Q 536.64 548.82 532.78 548.82 Q 453.71 548.87 374.64 549.02 Q 374.15 549.02 373.86 548.64 Q 373.31 547.93 372.4 547.98" stroke-linecap="round" />
</g>
<g transform="matrix(0.7653312908 0 0 0.7653312908 110.1465186253 328.3540212486)" id="vT3vqsXKlZ2dzf8QQqzMR"  >
<path style="stroke: rgb(255,136,1); stroke-width: 2; stroke-dasharray: none; stroke-linecap: butt; stroke-dashoffset: 0; stroke-linejoin: miter; stroke-miterlimit: 4; fill: none; fill-rule: nonzero; opacity: 1;" vector-effect="non-scaling-stroke"  transform=" translate(-483.935, -752.315)" d="M 543.67 751.42 Q 541.31 752.55 539 752.55 Q 481.76 752.65 424.52 752.59 Q 424.2 752.59 424.2 752.92 Q 424.2 753.07 424.25 753.21" stroke-linecap="round" />
</g>
<g transform="matrix(0.7653312908 0 0 0.7653312908 44.9096793934 328.4878849144)" id="JlmzOc2VkpjjpXwWyL-Kv"  >
<path style="stroke: rgb(252,163,58); stroke-width: 2; stroke-dasharray: none; stroke-linecap: butt; stroke-dashoffset: 0; stroke-linejoin: miter; stroke-miterlimit: 4; fill: none; fill-rule: nonzero; opacity: 1;" vector-effect="non-scaling-stroke"  transform=" translate(-398.695, -752.4899094377)" d="M 424.25 753.21 Q 424.1 752.9 423.97 752.77 Q 423.89 752.7 423.51 752.69 Q 403.42 752.11 383.31 752.7 Q 382.83 752.72 382.43 752.97 C 381.35 753.64 380.77 753.52 379.6 752.93 Q 376.26 751.26 373.14 752.14" stroke-linecap="round" />
</g>
<g transform="matrix(0.7653312908 0 0 0.7653312908 197.2646185105 415.5788284665)" id="3gZ7kTFsV9UVN66CkR7d2"  >
<path style="stroke: rgb(248,86,35); stroke-width: 2; stroke-dasharray: none; stroke-linecap: butt; stroke-dashoffset: 0; stroke-linejoin: miter; stroke-miterlimit: 4; fill: none; fill-rule: nonzero; opacity: 1;" vector-effect="non-scaling-stroke"  transform=" translate(-597.7655736706, -866.285)" d="M 571.53 786.74 Q 571.34 786.95 571.33 787.35 C 571.3231280190067 787.510078212492 571.3805603202604 787.6680170409398 571.49 787.79 L 649.76 881.13 Q 650.72 882.27 649.44 883.03 L 565.18 933.27 Q 564.31 933.79 563.59 933.08 Q 555.43 925.07 546.5 916.12 Q 546.31 915.93 546.07 915.87 Q 545.68 915.77 545.96 916.06 L 563.43 933.62 Q 563.91 934.11 563.32 934.46 C 557.83 937.65 552.33 942.08 546.22 944 Q 545.51 944.23 545.31 944.64 Q 545.08 945.11 545.09 945.83" stroke-linecap="round" />
</g>
<g transform="matrix(0.7653312908 0 0 0.7653312908 107.7187066579 401.320706518)" id="7KxPe5yvWnQjTfVSfOkvd"  >
<path style="stroke: rgb(252,129,58); stroke-width: 2; stroke-dasharray: none; stroke-linecap: butt; stroke-dashoffset: 0; stroke-linejoin: miter; stroke-miterlimit: 4; fill: none; fill-rule: nonzero; opacity: 1;" vector-effect="non-scaling-stroke"  transform=" translate(-480.7627633536, -847.655)" d="M 537.01 942.1 Q 537.51 940.37 535.15 938.55 Q 533.34 937.16 532.55 935.85 Q 513.68 904.26 494.92 872.6 C 492.94 869.27 492.42 868.23 495.48 865.15 Q 508.89 851.65 522.25 838.13 C 525.96 834.39 528.66 830.62 526.98 825.65 Q 526.09 823.02 521.34 818.3 Q 509.33 806.37 497.27 794.47 Q 492.52 789.78 485.77 791.59 C 481.9 792.63 478.61 794.23 474.77 791.97 Q 471.46 790.03 471.35 789.99 C 462.47 786.63 457.44 792.35 452.06 798.45 C 451.91667672191926 798.6155326328374 451.70241334950344 798.7019235352702 451.48435454476663 798.6821000075669 C 451.2662957400298 798.6622764798635 451.0711235692399 798.5386641644119 450.96 798.35 L 424.25 753.21" stroke-linecap="round" />
</g>
<g transform="matrix(0.7653312908 0 0 0.7653312908 287.8163330736 486.4523326554)" id="z17mwgDbugfQ5Ub4KPZxz"  >
<path style="stroke: rgb(244,113,92); stroke-width: 2; stroke-dasharray: none; stroke-linecap: butt; stroke-dashoffset: 0; stroke-linejoin: miter; stroke-miterlimit: 4; fill: none; fill-rule: nonzero; opacity: 1;" vector-effect="non-scaling-stroke"  transform=" translate(-716.0825896426, -958.89)" d="M 715.99 958.73 Q 715.91 958.99 716.22 959.05" stroke-linecap="round" />
</g>
<g transform="matrix(0.7653312908 0 0 0.7653312908 384.5564388705 352.7872227089)" id="03fAcuE8Ztkp6HWu-Ds3x"  >
<path style="stroke: rgb(156,0,0); stroke-width: 2; stroke-dasharray: none; stroke-linecap: butt; stroke-dashoffset: 0; stroke-linejoin: miter; stroke-miterlimit: 4; fill: none; fill-rule: nonzero; opacity: 1;" vector-effect="non-scaling-stroke"  transform=" translate(-842.4855042416, -784.24)" d="M 841.78 760.48 Q 840.08 761.91 840.7 766.5 Q 843.06 784.1 844.65 808" stroke-linecap="round" />
</g>
<g transform="matrix(0.7653312908 0 0 0.7653312908 386.2164083936 371.4842661443)" id="MIz6Fn-cYKIHX_vhxFTwE"  >
<path style="stroke: rgb(213,35,35); stroke-width: 2; stroke-dasharray: none; stroke-linecap: butt; stroke-dashoffset: 0; stroke-linejoin: miter; stroke-miterlimit: 4; fill: none; fill-rule: nonzero; opacity: 1;" vector-effect="non-scaling-stroke"  transform=" translate(-844.6544597553, -808.67)" d="M 844.65 808 Q 844.53 808.7 844.74 809.34" stroke-linecap="round" />
</g>
<g transform="matrix(0.7653312908 0 0 0.7653312908 386.1017968045 374.3198185769)" id="REcvevZhHuJT2pHjP7s4n"  >
<path style="stroke: rgb(156,0,0); stroke-width: 2; stroke-dasharray: none; stroke-linecap: butt; stroke-dashoffset: 0; stroke-linejoin: miter; stroke-miterlimit: 4; fill: none; fill-rule: nonzero; opacity: 1;" vector-effect="non-scaling-stroke"  transform=" translate(-844.5047055371, -812.375)" d="M 844.74 809.34 C 842.98 811.1 845.61 812.91 844.69 815.41" stroke-linecap="round" />
</g>
<g transform="matrix(0.7653312908 0 0 0.7653312908 379.4722774484 384.1727740219)" id="Z2v1BMfwOQBXaucrmq88u"  >
<path style="stroke: rgb(213,35,35); stroke-width: 2; stroke-dasharray: none; stroke-linecap: butt; stroke-dashoffset: 0; stroke-linejoin: miter; stroke-miterlimit: 4; fill: none; fill-rule: nonzero; opacity: 1;" vector-effect="non-scaling-stroke"  transform=" translate(-835.8424184526, -825.2491050612)" d="M 844.69 815.41 Q 838.99 813.38 834.48 818.07 Q 829.42 823.32 826.02 826.44 Q 825.54 826.87 825.98 827.35 L 828.49 830.12 C 828.6208690292334 830.2664231217881 828.8060012340447 830.3531976423841 829.0035823877834 830.3607245434789 C 829.2011635415221 830.3682514445737 829.3945272113276 830.2958958144393 829.54 830.16 C 832.19 827.66 837.05 821.63 840.35 820.69 C 840.6291993166627 820.6135373125634 840.9307478154008 820.6607678003176 841.18 820.82 C 846.29 824.12 840.65 828.35 837.5 831.17 C 835.57 832.9 837.05 834.17 838.37 835.56 Q 839.45 836.69 840.79 835.32 Q 843.16 832.91 846.03 830.08" stroke-linecap="round" />
</g>
<g transform="matrix(0.7653312908 0 0 0.7653312908 388.0307287153 391.7464120695)" id="8zOT5cHL7zww7kddrQzEe"  >
<path style="stroke: rgb(156,0,0); stroke-width: 2; stroke-dasharray: none; stroke-linecap: butt; stroke-dashoffset: 0; stroke-linejoin: miter; stroke-miterlimit: 4; fill: none; fill-rule: nonzero; opacity: 1;" vector-effect="non-scaling-stroke"  transform=" translate(-847.02509368, -835.145)" d="M 846.03 830.08 Q 848.41 834.57 847.31 840.21" stroke-linecap="round" />
</g>
<g transform="matrix(0.7653312908 0 0 0.7653312908 386.9546807015 398.6074403715)" id="rjInuxM1XmKPaIFqZHP66"  >
<path style="stroke: rgb(213,35,35); stroke-width: 2; stroke-dasharray: none; stroke-linecap: butt; stroke-dashoffset: 0; stroke-linejoin: miter; stroke-miterlimit: 4; fill: none; fill-rule: nonzero; opacity: 1;" vector-effect="non-scaling-stroke"  transform=" translate(-845.6191038469, -844.1097821591)" d="M 847.31 840.21 L 843.79 843.86 C 843.4304850242569 844.2319324923694 843.3650155497918 844.8006985517845 843.63 845.25 Q 845.55 848.4 847.77 847.47" stroke-linecap="round" />
</g>
<g transform="matrix(0.7653312908 0 0 0.7653312908 392.0754328912 434.597311044)" id="SDpi7sWA903WQVq70MbKR"  >
<path style="stroke: rgb(156,0,0); stroke-width: 2; stroke-dasharray: none; stroke-linecap: butt; stroke-dashoffset: 0; stroke-linejoin: miter; stroke-miterlimit: 4; fill: none; fill-rule: nonzero; opacity: 1;" vector-effect="non-scaling-stroke"  transform=" translate(-852.31, -891.135)" d="M 847.77 847.47 Q 849.03 851.16 849.25 854 Q 852.31 893.19 856.52 932.28 Q 856.56 932.67 856.39 933.01 Q 856.03 933.72 856.85 934.8" stroke-linecap="round" />
</g>
<g transform="matrix(0.7653312908 0 0 0.7653312908 291.4929000133 491.7752117833)" id="X64R3tnx_Wd0i5yBohRze"  >
<path style="stroke: rgb(213,35,35); stroke-width: 2; stroke-dasharray: none; stroke-linecap: butt; stroke-dashoffset: 0; stroke-linejoin: miter; stroke-miterlimit: 4; fill: none; fill-rule: nonzero; opacity: 1;" vector-effect="non-scaling-stroke"  transform=" translate(-720.8864791264, -965.845)" d="M 725.89 972.64 L 716.14 960.69 C 715.9189934025154 960.4121600408963 715.8344903803707 960.052103685671 715.91 959.71 Q 715.99 959.34 716.22 959.05" stroke-linecap="round" />
</g>
<g transform="matrix(0.7653312908 0 0 0.7653312908 288.5407377373 485.8457273743)" id="pSBQlYdHFmPafF-VlT6z3"  >
<path style="stroke: rgb(217,78,58); stroke-width: 2; stroke-dasharray: none; stroke-linecap: butt; stroke-dashoffset: 0; stroke-linejoin: miter; stroke-miterlimit: 4; fill: none; fill-rule: nonzero; opacity: 1;" vector-effect="non-scaling-stroke"  transform=" translate(-717.0291139418, -958.0973951655)" d="M 716.22 959.05 L 717.74 957.53 Q 718.2 957.07 717.59 957.28 Q 716.68 957.61 715.99 958.73" stroke-linecap="round" />
</g>
<g transform="matrix(0.7653312908 0 0 0.7653312908 276.9451699405 432.9623841768)" id="7eH8Fy6_gjF71hrrq7rTg"  >
<path style="stroke: rgb(213,35,35); stroke-width: 2; stroke-dasharray: none; stroke-linecap: butt; stroke-dashoffset: 0; stroke-linejoin: miter; stroke-miterlimit: 4; fill: none; fill-rule: nonzero; opacity: 1;" vector-effect="non-scaling-stroke"  transform=" translate(-701.8780702885, -888.9987658139)" d="M 715.99 958.73 L 715.55 958.9 Q 715.11 959.08 714.79 958.71 L 651.22 883.02 C 651.1015543501913 882.8802445515082 651.0498646548708 882.6959276101721 651.0788025003268 882.5165129683452 C 651.1077403457828 882.3370983265181 651.2143421628904 882.1809601127748 651.37 882.09 L 752.3 821.6 Q 752.76 821.32 752.55 820.83 Q 752.09 819.76 752.25 818.98" stroke-linecap="round" />
</g>
<g transform="matrix(0.7653312908 0 0 0.7653312908 389.8215038801 391.1008421733)" id="-ZOlluI_mjtN2uDroG8LE"  >
<path style="stroke: rgb(183,35,35); stroke-width: 2; stroke-dasharray: none; stroke-linecap: butt; stroke-dashoffset: 0; stroke-linejoin: miter; stroke-miterlimit: 4; fill: none; fill-rule: nonzero; opacity: 1;" vector-effect="non-scaling-stroke"  transform=" translate(-849.3649629448, -834.3014830761)" d="M 847.31 840.21 Q 849.85 838.52 851.45 836.28 Q 852.94 834.18 852.27 831.89 Q 851.01 827.59 846.03 830.08" stroke-linecap="round" />
</g>
<g transform="matrix(0.7653312908 0 0 0.7653312908 407.532875371 361.8870117571)" id="aVZ4CIlyeDMqDD2PYu2mB"  >
<path style="stroke: rgb(183,35,35); stroke-width: 2; stroke-dasharray: none; stroke-linecap: butt; stroke-dashoffset: 0; stroke-linejoin: miter; stroke-miterlimit: 4; fill: none; fill-rule: nonzero; opacity: 1;" vector-effect="non-scaling-stroke"  transform=" translate(-872.5070606254, -796.13)" d="M 865.18 787.49 Q 865.07 791.47 867.38 794.1 Q 872.65 800.09 879.87 804.77" stroke-linecap="round" />
</g>
<g transform="matrix(0.7653312908 0 0 0.7653312908 392.0149885538 388.9108596369)" id="zlvz9LsmujQtCUcWgUEYH"  >
<path style="stroke: rgb(183,35,35); stroke-width: 2; stroke-dasharray: none; stroke-linecap: butt; stroke-dashoffset: 0; stroke-linejoin: miter; stroke-miterlimit: 4; fill: none; fill-rule: nonzero; opacity: 1;" vector-effect="non-scaling-stroke"  transform=" translate(-852.2310219964, -831.44)" d="M 847.77 847.47 Q 852.35 842.57 857.26 837.52 Q 860.22 834.46 859.02 831.03 Q 856.87 824.89 849.95 823.5 Q 849.53 823.42 849.44 823 L 848.79 819.89 Q 848.7 819.44 848.38 819.12 L 844.69 815.41" stroke-linecap="round" />
</g>
<g transform="matrix(0.7653312908 0 0 0.7653312908 400.2697618881 374.4946455282)" id="jvbBtbiOioy5PQlG3glOT"  >
<path style="stroke: rgb(183,35,35); stroke-width: 2; stroke-dasharray: none; stroke-linecap: butt; stroke-dashoffset: 0; stroke-linejoin: miter; stroke-miterlimit: 4; fill: none; fill-rule: nonzero; opacity: 1;" vector-effect="non-scaling-stroke"  transform=" translate(-863.0169044411, -812.6034330373)" d="M 844.74 809.34 L 864.66 829.28 Q 865.21 829.83 865.74 829.26 L 868.84 825.91 C 869.1445135272038 825.5861468217248 869.1311251635321 825.0773890022032 868.81 824.77 L 862.35 818.65 C 862.0932541468402 818.4037383800388 862.024588067347 818.0200161711067 862.18 817.7 Q 863.27 815.45 865.29 813.94 C 866.76 812.85 868.19 813.29 869.65 814.08 Q 872.91 815.84 876.36 817.57 C 876.7515546830061 817.7672579112428 877.2250651261985 817.6950275046543 877.54 817.39 L 881.2 813.87 C 881.3435207464921 813.7298371338728 881.4089519992426 813.5280682173146 881.3750009648005 813.3303533696807 C 881.3410499303583 813.1326385220468 881.2120572396448 812.9642555351743 881.03 812.88 L 869.84 807.83 C 869.6226979013705 807.7333169433155 869.4846491860385 807.5203274968032 869.49 807.29 Q 869.6 802.01 866 798.71 C 862.96 795.92 858.59 793.89 855.18 797.32 Q 850.35 802.21 844.65 808" stroke-linecap="round" />
</g>
<g transform="matrix(0.7653312908 0 0 0.7653312908 173.988367534 39.3033422689)" id="Qs9MOxnYuqZJ0yjLu699A"  >
<path style="stroke: rgb(207,223,84); stroke-width: 2; stroke-dasharray: none; stroke-linecap: butt; stroke-dashoffset: 0; stroke-linejoin: miter; stroke-miterlimit: 4; fill: none; fill-rule: nonzero; opacity: 1;" vector-effect="non-scaling-stroke"  transform=" translate(-567.3522725879, -374.6345334668)" d="M 583.26 358.76 C 578.87 362.28 574.94 367.05 571.29 370.44 Q 565.64 375.72 560.4 381.39 C 557.91 384.09 554.43 386.77 551.9 389.93 Q 551.28 390.69 551.98 390 L 583.26 358.76" stroke-linecap="round" />
</g>
<g transform="matrix(0.7653312908 0 0 0.7653312908 192.988355311 20.2866656359)" id="J-iQVD3OczpPEMe0UX-wu"  >
<path style="stroke: rgb(207,223,84); stroke-width: 2; stroke-dasharray: none; stroke-linecap: butt; stroke-dashoffset: 0; stroke-linejoin: miter; stroke-miterlimit: 4; fill: none; fill-rule: nonzero; opacity: 1;" vector-effect="non-scaling-stroke"  transform=" translate(-592.1781068433, -349.7868931567)" d="M 583.26 358.76 L 601.09 340.85 C 601.0953589838487 340.8446410161514 601.0974519052838 340.8368301270189 601.0954903810568 340.82950961894323 C 601.0935288568297 340.8221891108675 601.0878108891325 340.81647114317025 601.0804903810567 340.8145096189432 C 601.073169872981 340.81254809471613 601.0653589838486 340.81464101615137 601.06 340.82 Q 597.51 343.9 594.29 347.3 Q 592.24 349.46 588.64 352.88 Q 585.74 355.65 583.26 358.76" stroke-linecap="round" />
</g>
<g transform="matrix(0.7653312908 0 0 0.7653312908 113.5990009829 382.9760731828)" id="8nmuTA6iaClKqqzRDmjZS"  >
<path style="stroke: rgb(252,129,58); stroke-width: 2; stroke-dasharray: none; stroke-linecap: butt; stroke-dashoffset: 0; stroke-linejoin: miter; stroke-miterlimit: 4; fill: none; fill-rule: nonzero; opacity: 1;" vector-effect="non-scaling-stroke"  transform=" translate(-488.4460952588, -823.6854673876)" d="M 517.65 820.85 C 509.94 813.33 502.47 805.46 494.71 798.02 C 488.89 792.45 484.62 797.91 478.31 797.59 C 474.24 797.38 471.05 793.82 467.27 793.42 C 462.09 792.87 457.55 798.55 454.27 802.03 C 454.0312984366756 802.2874152220433 453.96124187575924 802.6571581824351 454.09 802.98 C 455.87 807.63 459.33 812.37 462.01 816.67 C 462.1962459090747 816.9722744395605 462.52826287081416 817.1516399246381 462.88 817.14 C 468.06 816.97 472.14 816.08 477.34 819.18 C 488.68 825.94 489.71 838.94 481.28 848.53 C 481.10489037234413 848.7296865641599 481.0690661426912 849.0122999314215 481.19 849.24 L 483.36 853.52 C 483.4872384449934 853.764285630241 483.7226395186997 853.9338896536474 483.99464095342984 853.977252201213 C 484.26664238815994 854.0206147487787 484.5431110259166 853.9326131431419 484.74 853.74 Q 491.26 847.25 496.94 841.5 C 499.79 838.61 508 838.57 513 839.04 Q 514.76 839.21 516.01 838.02 C 518.13 835.99 522.45 832.33 522.83 829.41 C 523.25 826.2 519.88 823.02 517.65 820.85" stroke-linecap="round" />
</g>
<g transform="matrix(0.7653312908 0 0 0.7653312908 372.0687593242 402.5285538051)" id="pyUBsayuoelIMOPXXjp-G"  >
<path style="stroke: rgb(213,35,35); stroke-width: 2; stroke-dasharray: none; stroke-linecap: butt; stroke-dashoffset: 0; stroke-linejoin: miter; stroke-miterlimit: 4; fill: none; fill-rule: nonzero; opacity: 1;" vector-effect="non-scaling-stroke"  transform=" translate(-826.1688062369, -849.2332018866)" d="M 830.06 856.85 C 820.9 852.25 839.21 842.77 827.74 834.95 C 822.29 831.23 819.1 833.54 814.81 837.8 Q 812.12 840.47 809.34 843.15 C 809.1780075067564 843.3049116055951 809.0855545952342 843.5187549385137 809.083671124191 843.7428879926402 C 809.0817876531479 843.967021046767 809.1706337563764 844.1823879008178 809.33 844.34 L 811.89 846.86 C 812.1828264050074 847.1470074521914 812.6549648774368 847.142553315659 812.95 846.85 L 820.72 839.03 C 821.1869122468011 838.5586234071105 821.8250387011691 838.2967684798781 822.4884737782404 838.3043075148448 C 823.1519088553117 838.3118465498115 823.7839200456253 838.5881348593699 824.24 839.07 C 827.87 842.9 821.72 848.93 821.24 853.32 C 820.77 857.59 825.65 862.06 828.7 864.86 Q 829.46 865.56 830.19 864.83 Q 835.1 859.87 840.04 855.04 Q 842.05 853.08 843.14 851.21 C 843.3513109035954 850.8419710506369 843.2616785576524 850.3767364931238 842.93 850.12 L 840.43 848.17 C 840.1213289889091 847.9316750074324 839.6832191935767 847.9617413659357 839.41 848.24 L 831.31 856.64 C 830.9825383885327 856.9728535269942 830.4782533378088 857.0575734155158 830.06 856.85" stroke-linecap="round" />
</g>
<g transform="matrix(0.7653312908 0 0 0.7653312908 362.139612536 410.8097672825)" id="xRYgGgxbZ7HJOgVSm-w19"  >
<path style="stroke: rgb(213,35,35); stroke-width: 2; stroke-dasharray: none; stroke-linecap: butt; stroke-dashoffset: 0; stroke-linejoin: miter; stroke-miterlimit: 4; fill: none; fill-rule: nonzero; opacity: 1;" vector-effect="non-scaling-stroke"  transform=" translate(-813.1951477612, -860.0536316487)" d="M 825.88 868.1 L 805.71 848.1 C 805.4410719576914 847.8327398186213 805.009608159582 847.8239344349865 804.73 848.08 L 800.42 852.05 Q 800.07 852.38 800.24 852.82 Q 801.54 856.05 804.89 855.71 C 805.2249253024918 855.6727188794032 805.5596496490951 855.7904241441428 805.8 856.03 L 821.83 872 C 822.1142909836785 872.2809516651283 822.5703077476081 872.2853790123509 822.86 872.01 L 825.87 869.1 Q 826.39 868.6 825.88 868.1" stroke-linecap="round" />
</g>
<g transform="matrix(0.7653312908 0 0 0.7653312908 346.9117496024 430.2222822596)" id="QawfQniyu5Ca-fowDgl-W"  >
<path style="stroke: rgb(213,35,35); stroke-width: 2; stroke-dasharray: none; stroke-linecap: butt; stroke-dashoffset: 0; stroke-linejoin: miter; stroke-miterlimit: 4; fill: none; fill-rule: nonzero; opacity: 1;" vector-effect="non-scaling-stroke"  transform=" translate(-793.298061211, -885.4184837191)" d="M 784.61 902.85 Q 787.92 906.74 791.88 902.9 Q 802.04 893.05 812.1 882.74 C 812.7662741029394 882.0586932371531 813.1343325573024 881.1404384638408 813.1230781117005 880.1875620695469 C 813.1118236660986 879.2346856752528 812.7221798537759 878.3253801413109 812.04 877.66 Q 806.76 872.52 801.58 866.96 Q 800.8 866.12 798.49 865.61 Q 798.01 865.5 797.56 865.72 C 793.65 867.64 792.81 864.91 789.68 865.07 Q 787.82 865.17 786.52 866.52 Q 779 874.35 775.12 878.14 C 771.7 881.47 774.66 883.37 774.7 886.77 Q 774.72 888.39 774.21 889.85 C 773.8142435407286 890.9943382850405 774.1272620997452 892.2659761810452 775.01 893.1 C 778.24 896.12 781.58 899.31 784.61 902.85" stroke-linecap="round" />
</g>
<g transform="matrix(0.7653312908 0 0 0.7653312908 315.5054229066 458.7509323897)" id="Rqgo94b2O-DOaxluzykvt"  >
<path style="stroke: rgb(217,78,58); stroke-width: 2; stroke-dasharray: none; stroke-linecap: butt; stroke-dashoffset: 0; stroke-linejoin: miter; stroke-miterlimit: 4; fill: none; fill-rule: nonzero; opacity: 1;" vector-effect="non-scaling-stroke"  transform=" translate(-752.2618105423, -922.6946939972)" d="M 753.27 921.99 C 753.345605955521 921.9239188980323 753.3604924267884 921.8120209976238 753.304792758104 921.7284714945973 C 753.2490930894197 921.6449219915709 753.1400771539397 921.6156256956605 753.05 921.66 Q 751.99 922.16 751.44 923.2 Q 751.07 923.9 751.66 923.38 L 753.27 921.99" stroke-linecap="round" />
</g>
<g transform="matrix(0.7653312908 0 0 0.7653312908 305.5797304635 468.6163432465)" id="oxbu4jWE14941nml82abb"  >
<path style="stroke: rgb(217,78,58); stroke-width: 2; stroke-dasharray: none; stroke-linecap: butt; stroke-dashoffset: 0; stroke-linejoin: miter; stroke-miterlimit: 4; fill: none; fill-rule: nonzero; opacity: 1;" vector-effect="non-scaling-stroke"  transform=" translate(-739.2926655958, -935.5850735946)" d="M 740.63 934.21 C 739.93 934.76 738.45 935.91 737.97 936.59 Q 737.44 937.34 738.24 936.89 Q 739.18 936.36 739.84 935.53 Q 740.76 934.67 740.87 934.38 Q 741.05 933.87 740.63 934.21" stroke-linecap="round" />
</g>
<g transform="matrix(0.7653312908 0 0 0.7653312908 302.8760709429 471.3829595386)" id="CSGqtoS99U94alr64lXtB"  >
<path style="stroke: rgb(217,78,58); stroke-width: 2; stroke-dasharray: none; stroke-linecap: butt; stroke-dashoffset: 0; stroke-linejoin: miter; stroke-miterlimit: 4; fill: none; fill-rule: nonzero; opacity: 1;" vector-effect="non-scaling-stroke"  transform=" translate(-735.76, -939.2)" d="M 734.2235 940.8709 C 734.2761864272177 940.9193977427401 734.488601604517 940.789861206353 734.8140156135324 940.5107875624988 C 735.1394296225478 940.2317139186446 735.5511856055077 939.8259639730228 735.9587 939.3828 C 736.8072417840846 938.4600204451299 737.4061773048367 937.6301155454303 737.2965 937.5291 C 737.2438135727823 937.4806022572599 737.0313983954829 937.610138793647 736.7059843864675 937.8892124375012 C 736.3805703774522 938.1682860813554 735.9688143944923 938.5740360269772 735.5613 939.0172 C 734.7127582159154 939.9399795548701 734.1138226951633 940.7698844545697 734.2235 940.8709" stroke-linecap="round" />
</g>
<g transform="matrix(0.7653312908 0 0 0.7653312908 299.1489075565 475.0948162992)" id="jkAj6iSRC-y1V27tEIWqH"  >
<path style="stroke: rgb(217,78,58); stroke-width: 2; stroke-dasharray: none; stroke-linecap: butt; stroke-dashoffset: 0; stroke-linejoin: miter; stroke-miterlimit: 4; fill: none; fill-rule: nonzero; opacity: 1;" vector-effect="non-scaling-stroke"  transform=" translate(-730.89, -944.05)" d="M 732.062 943.0665 C 731.9625186546214 942.9481273748512 731.3572389567636 943.2924025876121 730.71 943.8355 C 730.3991024559522 944.0963755544269 730.1199132915261 944.3691667718234 729.9338699229037 944.5938441464299 C 729.7478265542812 944.8185215210365 729.6701739221018 944.9766743281696 729.718 945.0335 C 729.8174813453784 945.1518726251489 730.4227610432364 944.8075974123881 731.07 944.2645 C 731.3808975440479 944.0036244455731 731.660086708474 943.7308332281766 731.8461300770964 943.50615585357 C 732.0321734457189 943.2814784789634 732.1098260778983 943.1233256718303 732.062 943.0665" stroke-linecap="round" />
</g>
<g transform="matrix(0.7653312908 0 0 0.7653312908 296.8146471195 477.4520366751)" id="H_t1eIcWs5MzVUreEmTLs"  >
<path style="stroke: rgb(217,78,58); stroke-width: 2; stroke-dasharray: none; stroke-linecap: butt; stroke-dashoffset: 0; stroke-linejoin: miter; stroke-miterlimit: 4; fill: none; fill-rule: nonzero; opacity: 1;" vector-effect="non-scaling-stroke"  transform=" translate(-727.84, -947.13)" d="M 726.531 948.5889 C 726.584278018088 948.6367546698683 726.7733047672641 948.5289252492477 727.056490171973 948.2891366012605 C 727.3396755766819 948.0493479532732 727.693818626827 947.6972456484554 728.041 947.3103 C 728.388172159331 946.9233721633778 728.6999512757009 946.5332915875746 728.9077437784036 946.2258787081249 C 729.1155362811063 945.9184658286753 729.2023193114115 945.7189046438017 729.149 945.6711 C 729.0957219819119 945.6232453301318 728.9066952327357 945.7310747507524 728.623509828027 945.9708633987398 C 728.3403244233181 946.210652046727 727.9861813731729 946.5627543515448 727.639 946.9497 C 727.2918278406692 947.336627836622 726.9800487242992 947.7267084124253 726.7722562215965 948.034121291875 C 726.5644637188939 948.3415341713246 726.4776806885885 948.5410953561982 726.531 948.5889" stroke-linecap="round" />
</g>
<g transform="matrix(0.7653312908 0 0 0.7653312908 182.4971122055 478.5311537951)" id="iOlYFyGGmLHlHi9gt79V3"  >
<path style="stroke: rgb(244,113,92); stroke-width: 2; stroke-dasharray: none; stroke-linecap: butt; stroke-dashoffset: 0; stroke-linejoin: miter; stroke-miterlimit: 4; fill: none; fill-rule: nonzero; opacity: 1;" vector-effect="non-scaling-stroke"  transform=" translate(-578.47, -948.54)" d="M 568.118 937.8203 C 568.0711140118807 937.7734016473529 568.0075155439015 937.7470533875205 567.9412 937.7470533875205 C 567.8748844560986 937.7470533875205 567.8112859881194 937.7734016473529 567.7644 937.8203 L 567.7503 937.8344 C 567.703401647353 937.8812859881193 567.6770533875206 937.9448844560985 567.6770533875206 938.0111999999999 C 567.6770533875206 938.0775155439014 567.703401647353 938.1411140118806 567.7503 938.188 L 588.822 959.2597 C 588.8688859881194 959.306598352647 588.9324844560986 959.3329466124794 588.9988000000001 959.3329466124794 C 589.0651155439015 959.3329466124794 589.1287140118807 959.306598352647 589.1756 959.2597 L 589.1897 959.2456 C 589.2365983526471 959.1987140118806 589.2629466124794 959.1351155439014 589.2629466124794 959.0688 C 589.2629466124794 959.0024844560986 589.2365983526471 958.9388859881194 589.1897 958.892 L 568.118 937.8203" stroke-linecap="round" />
</g>
<g transform="matrix(0.7653312908 0 0 0.7653312908 284.8219057918 489.4524313155)" id="4c2lR4cefGRwZ__-pbjYC"  >
<path style="stroke: rgb(244,113,92); stroke-width: 2; stroke-dasharray: none; stroke-linecap: butt; stroke-dashoffset: 0; stroke-linejoin: miter; stroke-miterlimit: 4; fill: none; fill-rule: nonzero; opacity: 1;" vector-effect="non-scaling-stroke"  transform=" translate(-712.17, -962.81)" d="M 711.0777 964.1257 C 711.1924678835472 964.2208914545436 711.7744791900061 963.7090796656638 712.3777 962.9825 C 712.6674071392185 962.6335509437731 712.9233645312561 962.2807170381315 713.0892606405524 962.0016229957905 C 713.2551567498488 961.7225289534495 713.3174012032937 961.5400384339873 713.2623 961.4943 C 713.1475321164528 961.3991085454564 712.5655208099939 961.9109203343362 711.9623 962.6375 C 711.6725928607815 962.9864490562269 711.416635468744 963.3392829618685 711.2507393594476 963.6183770042095 C 711.0848432501513 963.8974710465505 711.0225987967063 964.0799615660127 711.0777 964.1257" stroke-linecap="round" />
</g>
<g transform="matrix(0.7653312908 0 0 0.7653312908 279.7747004729 494.3708047139)" id="lAxyMLslDwCAF03xv3l7I"  >
<path style="stroke: rgb(244,113,92); stroke-width: 2; stroke-dasharray: none; stroke-linecap: butt; stroke-dashoffset: 0; stroke-linejoin: miter; stroke-miterlimit: 4; fill: none; fill-rule: nonzero; opacity: 1;" vector-effect="non-scaling-stroke"  transform=" translate(-705.575201931, -969.2364632286)" d="M 707.17 967.41 L 703.08 971.61 C 702.9861115925288 971.6900812887254 702.9749187112745 971.8311115925287 703.0550000000001 971.9250000000001 C 703.1350812887255 972.0188884074713 703.2761115925288 972.0300812887255 703.37 971.95 Q 705.87 970.18 707.47 967.64 Q 708.42 966.12 707.17 967.41" stroke-linecap="round" />
</g>
<g transform="matrix(0.7653312908 0 0 0.7653312908 396.4939666773 370.6085332473)" id="RxyMW7KMDBZWezokb62g0"  >
<path style="stroke: rgb(183,35,35); stroke-width: 2; stroke-dasharray: none; stroke-linecap: butt; stroke-dashoffset: 0; stroke-linejoin: miter; stroke-miterlimit: 4; fill: none; fill-rule: nonzero; opacity: 1;" vector-effect="non-scaling-stroke"  transform=" translate(-858.083360947, -807.5257466453)" d="M 852.77 809.02 L 856.61 812.85 C 857.1327201321171 813.3699473695144 857.9772798678829 813.3699473695144 858.5 812.85 L 862.66 808.67 C 864.0149780897518 807.3063998260704 864.1759363314142 805.2675954316808 863.02 804.11 L 861.49 802.58 C 860.9314146286962 802.0238520137688 860.1359198002984 801.7514102831396 859.2787395113332 801.8226856682177 C 858.421559222368 801.8939610532957 857.5730092245637 802.3031067300861 856.92 802.96 L 852.76 807.13 C 852.2428080577927 807.6554669946423 852.2472766726494 808.5000352025511 852.77 809.02" stroke-linecap="round" />
</g>
<g transform="matrix(0.7653312908 0 0 0.7653312908 346.9616845683 429.6882320624)" id="FsLLlUvV1My1JyZrWYV-m"  >
<path style="stroke: rgb(213,35,35); stroke-width: 2; stroke-dasharray: none; stroke-linecap: butt; stroke-dashoffset: 0; stroke-linejoin: miter; stroke-miterlimit: 4; fill: none; fill-rule: nonzero; opacity: 1;" vector-effect="non-scaling-stroke"  transform=" translate(-793.3633074207, -884.7206810764)" d="M 787.74 903.07 C 791.24 903.04 792.68 899.79 792.34 896.77 C 791.97 893.49 798.6 887.97 800.89 885.63 C 804.15 882.28 808.34 886.17 811.13 881.4 Q 812.12 879.7 810.83 878.4 Q 805.65 873.21 800.44 867.96 C 800.181295950884 867.6952930526261 799.837173546985 867.5321009847977 799.47 867.5 Q 797.2 867.29 795.11 868.27 C 794.8723998429572 868.3851728390036 794.5983774155181 868.3995950720267 794.35 868.31 L 789.4 866.43 C 789.0350471048616 866.2960509937416 788.6255385050324 866.3857528775137 788.35 866.66 L 775.46 879.73 C 775.2330967899175 879.9570483784702 775.0887698863952 880.252742522272 775.05 880.57 Q 774.75 882.93 776.08 884.99 C 776.2292195690957 885.2236696136866 776.2993809158276 885.4937907986044 776.28 885.76 L 775.89 891.15 C 775.858448137959 891.5747852365082 776.0121274028838 891.9882556397584 776.31 892.28 L 786.84 902.71 Q 787.21 903.08 787.74 903.07" stroke-linecap="round" />
</g>
<g transform="matrix(0.7653312908 0 0 0.7653312908 344.8774521847 428.0499018509)" id="rXtUZB3E_y9x7XySzR4AI"  >
<path style="stroke: rgb(213,35,35); stroke-width: 2; stroke-dasharray: none; stroke-linecap: butt; stroke-dashoffset: 0; stroke-linejoin: miter; stroke-miterlimit: 4; fill: none; fill-rule: nonzero; opacity: 1;" vector-effect="non-scaling-stroke"  transform=" translate(-790.64, -882.58)" d="M 797.62 882.58 C 797.62 880.72878890092 796.8846092542494 878.9533985888852 795.5756053326821 877.6443946673179 C 794.2666014111148 876.3353907457506 792.49121109908 875.6 790.64 875.6 C 788.7887889009199 875.6 787.0133985888851 876.3353907457506 785.7043946673178 877.6443946673179 C 784.3953907457505 878.9533985888852 783.66 880.72878890092 783.66 882.58 C 783.66 886.4349475538189 786.7850524461811 889.56 790.64 889.56 C 794.4949475538189 889.56 797.62 886.4349475538189 797.62 882.58" stroke-linecap="round" />
</g>
<g transform="matrix(0.7653312908 0 0 0.7653312908 316.4423030899 57.4731871768)" id="cll6SkPZsPPC6wOi3VJ27"  >
<path style="stroke: none; stroke-width: 1; stroke-dasharray: none; stroke-linecap: butt; stroke-dashoffset: 0; stroke-linejoin: miter; stroke-miterlimit: 4; fill: rgb(74,133,193); fill-rule: nonzero; opacity: 1;"  transform=" translate(-753.4859603903, -398.3756833782)" d="M 871.89 380.35 Q 871.42 382.05 870.1 382.84 Q 805.01 421.6 740.03 460.53 Q 727.57 467.99 720.79 471.33 Q 720.32 470.87 719.18 470.93 Q 719.95 470.65 719.86 470.51 Q 695.64 430.55 671.71 390.42 Q 670.89 389.04 670.31 387.87 L 635.2 328.94 Q 635.05 328.7 635.16 328.44 L 635.29 328.15 C 681.76 322.79 731.69 325.14 777.24 336.86 Q 828.52 350.06 871.89 380.35 Z" stroke-linecap="round" />
</g>
<g transform="matrix(0.7653312908 0 0 0.7653312908 204.3434939028 86.9532254895)" id="wqzfGnf94fRPfxGnL7-65"  >
<path style="stroke: none; stroke-width: 1; stroke-dasharray: none; stroke-linecap: butt; stroke-dashoffset: 0; stroke-linejoin: miter; stroke-miterlimit: 4; fill: rgb(165,208,90); fill-rule: nonzero; opacity: 1;"  transform=" translate(-607.015, -436.895)" d="M 635.29 328.15 L 635.16 328.44 Q 635.05 328.7 635.2 328.94 L 670.31 387.87 L 568.33 516.57 Q 556.21 530.18 545.75 545.64 L 544.5 544.19 Q 544.39 455.44 544.34 367.25 Q 544.34 358.68 543.72 353.89 Q 587.24 334.13 635.29 328.15 Z M 583.26 358.76 C 578.87 362.28 574.94 367.05 571.29 370.44 Q 565.64 375.72 560.4 381.39 C 557.91 384.09 554.43 386.77 551.9 389.93 Q 551.28 390.69 551.98 390 L 583.26 358.76 L 601.09 340.85 C 601.0953589838487 340.8446410161514 601.0974519052838 340.8368301270189 601.0954903810568 340.82950961894323 C 601.0935288568297 340.8221891108675 601.0878108891325 340.81647114317025 601.0804903810567 340.8145096189432 C 601.073169872981 340.81254809471613 601.0653589838486 340.81464101615137 601.06 340.82 Q 597.51 343.9 594.29 347.3 Q 592.24 349.46 588.64 352.88 Q 585.74 355.65 583.26 358.76 Z" stroke-linecap="round" />
</g>
<g transform="matrix(0.7653312908 0 0 0.7653312908 192.988355311 20.2866656359)" id="n2Kz29sZSkM0yG3g6qOfF"  >
<path style="stroke: none; stroke-width: 1; stroke-dasharray: none; stroke-linecap: butt; stroke-dashoffset: 0; stroke-linejoin: miter; stroke-miterlimit: 4; fill: rgb(248,238,78); fill-rule: nonzero; opacity: 1;"  transform=" translate(-592.1781068433, -349.7868931567)" d="M 583.26 358.76 Q 585.74 355.65 588.64 352.88 Q 592.24 349.46 594.29 347.3 Q 597.51 343.9 601.06 340.82 C 601.0653589838486 340.81464101615137 601.073169872981 340.81254809471613 601.0804903810567 340.8145096189432 C 601.0878108891325 340.81647114317025 601.0935288568297 340.8221891108675 601.0954903810568 340.82950961894323 C 601.0974519052838 340.8368301270189 601.0953589838487 340.8446410161514 601.09 340.85 L 583.26 358.76 Z" stroke-linecap="round" />
</g>
<g transform="matrix(0.7653312908 0 0 0.7653312908 90.6420506781 98.0964490843)" id="pOqBGn6pVh0DlF4zPebPc"  >
<path style="stroke: none; stroke-width: 1; stroke-dasharray: none; stroke-linecap: butt; stroke-dashoffset: 0; stroke-linejoin: miter; stroke-miterlimit: 4; fill: rgb(248,238,78); fill-rule: nonzero; opacity: 1;"  transform=" translate(-458.45, -451.455)" d="M 543.72 353.89 Q 544.34 358.68 544.34 367.25 Q 544.39 455.44 544.5 544.19 Q 542.48 546.48 539.08 547.84 Q 536.64 548.82 532.78 548.82 Q 453.71 548.87 374.64 549.02 Q 374.15 549.02 373.86 548.64 Q 373.31 547.93 372.4 547.98 Q 387.17 500.8 413.74 462 Q 462.9 390.2 543.72 353.89 Z" stroke-linecap="round" />
</g>
<g transform="matrix(0.7653312908 0 0 0.7653312908 173.988367534 39.3033422689)" id="9Ypn-7abn1tozYqofTGXh"  >
<path style="stroke: none; stroke-width: 1; stroke-dasharray: none; stroke-linecap: butt; stroke-dashoffset: 0; stroke-linejoin: miter; stroke-miterlimit: 4; fill: rgb(248,238,78); fill-rule: nonzero; opacity: 1;"  transform=" translate(-567.3522725879, -374.6345334668)" d="M 583.26 358.76 L 551.98 390 Q 551.28 390.69 551.9 389.93 C 554.43 386.77 557.91 384.09 560.4 381.39 Q 565.64 375.72 571.29 370.44 C 574.94 367.05 578.87 362.28 583.26 358.76 Z" stroke-linecap="round" />
</g>
<g transform="matrix(0.7653312908 0 0 0.7653312908 376.1574040576 106.0802946434)" id="xUQiICwtHj6-MjFbI5uWS"  >
<path style="stroke: none; stroke-width: 1; stroke-dasharray: none; stroke-linecap: butt; stroke-dashoffset: 0; stroke-linejoin: miter; stroke-miterlimit: 4; fill: rgb(153,0,203); fill-rule: nonzero; opacity: 1;"  transform=" translate(-831.5111263305, -461.8868817937)" d="M 871.89 380.35 C 897.62 398.39 921.11 420.47 942.1 443.84 C 942.283796313336 444.0404654772876 942.2749968301238 444.35284713132256 942.08 444.55 L 844.46 543.16 Q 844.11 543.51 843.76 543.17 C 819.06 520.09 789.23 496.07 759 482.24 Q 743.28 475.05 720.79 471.33 Q 727.57 467.99 740.03 460.53 Q 805.01 421.6 870.1 382.84 Q 871.42 382.05 871.89 380.35 Z" stroke-linecap="round" />
</g>
<g transform="matrix(0.7653312908 0 0 0.7653312908 232.7372916636 98.6819275218)" id="gmQXyU95-Z_ZXG4YZXL7E"  >
<path style="stroke: none; stroke-width: 1; stroke-dasharray: none; stroke-linecap: butt; stroke-dashoffset: 0; stroke-linejoin: miter; stroke-miterlimit: 4; fill: rgb(0,154,60); fill-rule: nonzero; opacity: 1;"  transform=" translate(-644.115008977, -452.22)" d="M 670.31 387.87 Q 670.89 389.04 671.71 390.42 Q 695.64 430.55 719.86 470.51 Q 719.95 470.65 719.18 470.93 Q 693.98 467.35 672 468.79 Q 611.72 472.72 568.33 516.57 L 670.31 387.87 Z" stroke-linecap="round" />
</g>
<g transform="matrix(0.7653312908 0 0 0.7653312908 84.0369035099 247.3145724144)" id="L-L_E09_0Y8qsPKlVUWWP"  >
<path style="stroke: none; stroke-width: 1; stroke-dasharray: none; stroke-linecap: butt; stroke-dashoffset: 0; stroke-linejoin: miter; stroke-miterlimit: 4; fill: rgb(254,216,27); fill-rule: nonzero; opacity: 1;"  transform=" translate(-449.8195581937, -646.426935833)" d="M 544.5 544.19 L 545.75 545.64 L 541.35 553.74 Q 541.47 553.26 540.74 553.03 C 540.5633462076395 552.9763831701858 540.3716631966307 553.0311497447598 540.25 553.17 Q 472.32 632.6 404.43 712.21 Q 404.2 712.49 403.21 713.92 Q 402.58 714.82 401.75 715.47 Q 400 716.82 399.48 717.49 Q 390.44 729.12 380.4 739.93 Q 378.01 742.5 373.8 747.93 Q 372.97 749 371.78 747.26 C 369.98 741.25 368.03 735.12 366.66 729.19 Q 350.31 658.58 362.95 587 Q 366.45 567.19 372.4 547.98 Q 373.31 547.93 373.86 548.64 Q 374.15 549.02 374.64 549.02 Q 453.71 548.87 532.78 548.82 Q 536.64 548.82 539.08 547.84 Q 542.48 546.48 544.5 544.19 Z" stroke-linecap="round" />
</g>
<g transform="matrix(0.7653312908 0 0 0.7653312908 90.0871854922 252.5112660261)" id="0qoqeciR0f8lAMHjZNbsT"  >
<path style="stroke: none; stroke-width: 1; stroke-dasharray: none; stroke-linecap: butt; stroke-dashoffset: 0; stroke-linejoin: miter; stroke-miterlimit: 4; fill: rgb(255,170,1); fill-rule: nonzero; opacity: 1;"  transform=" translate(-457.725, -653.2170588476)" d="M 541.35 553.74 C 521.84 589.23 515.13 626.74 517.7 667 C 519.67 697.74 528.65 724.7 543.67 751.42 Q 541.31 752.55 539 752.55 Q 481.76 752.65 424.52 752.59 Q 424.2 752.59 424.2 752.92 Q 424.2 753.07 424.25 753.21 Q 424.1 752.9 423.97 752.77 Q 423.89 752.7 423.51 752.69 Q 403.42 752.11 383.31 752.7 Q 382.83 752.72 382.43 752.97 C 381.35 753.64 380.77 753.52 379.6 752.93 Q 376.26 751.26 373.14 752.14 L 371.78 747.26 Q 372.97 749 373.8 747.93 Q 378.01 742.5 380.4 739.93 Q 390.44 729.12 399.48 717.49 Q 400 716.82 401.75 715.47 Q 402.58 714.82 403.21 713.92 Q 404.2 712.49 404.43 712.21 Q 472.32 632.6 540.25 553.17 C 540.3716631966307 553.0311497447598 540.5633462076395 552.9763831701858 540.74 553.03 Q 541.47 553.26 541.35 553.74 Z" stroke-linecap="round" />
</g>
<g transform="matrix(0.7653312908 0 0 0.7653312908 151.0053752042 402.0630778701)" id="jUqvJIR2lHJwSLHWK4w1_"  >
<path style="stroke: none; stroke-width: 1; stroke-dasharray: none; stroke-linecap: butt; stroke-dashoffset: 0; stroke-linejoin: miter; stroke-miterlimit: 4; fill: rgb(255,102,0); fill-rule: nonzero; opacity: 1;"  transform=" translate(-537.3221502021, -848.625)" d="M 543.67 751.42 Q 555.33 770.89 571.53 786.74 Q 571.34 786.95 571.33 787.35 C 571.3231280190067 787.510078212492 571.3805603202604 787.6680170409398 571.49 787.79 L 649.76 881.13 Q 650.72 882.27 649.44 883.03 L 565.18 933.27 Q 564.31 933.79 563.59 933.08 Q 555.43 925.07 546.5 916.12 Q 546.31 915.93 546.07 915.87 Q 545.68 915.77 545.96 916.06 L 563.43 933.62 Q 563.91 934.11 563.32 934.46 C 557.83 937.65 552.33 942.08 546.22 944 Q 545.51 944.23 545.31 944.64 Q 545.08 945.11 545.09 945.83 L 537.01 942.1 Q 537.51 940.37 535.15 938.55 Q 533.34 937.16 532.55 935.85 Q 513.68 904.26 494.92 872.6 C 492.94 869.27 492.42 868.23 495.48 865.15 Q 508.89 851.65 522.25 838.13 C 525.96 834.39 528.66 830.62 526.98 825.65 Q 526.09 823.02 521.34 818.3 Q 509.33 806.37 497.27 794.47 Q 492.52 789.78 485.77 791.59 C 481.9 792.63 478.61 794.23 474.77 791.97 Q 471.46 790.03 471.35 789.99 C 462.47 786.63 457.44 792.35 452.06 798.45 C 451.91667672191926 798.6155326328374 451.70241334950344 798.7019235352702 451.48435454476663 798.6821000075669 C 451.2662957400298 798.6622764798635 451.0711235692399 798.5386641644119 450.96 798.35 L 424.25 753.21 Q 424.2 753.07 424.2 752.92 Q 424.2 752.59 424.52 752.59 Q 481.76 752.65 539 752.55 Q 541.31 752.55 543.67 751.42 Z" stroke-linecap="round" />
</g>
<g transform="matrix(0.7653312908 0 0 0.7653312908 88.1606655202 400.6875572129)" id="bxFsrgQT1rZl1-yDmYUfw"  >
<path style="stroke: none; stroke-width: 1; stroke-dasharray: none; stroke-linecap: butt; stroke-dashoffset: 0; stroke-linejoin: miter; stroke-miterlimit: 4; fill: rgb(248,156,115); fill-rule: nonzero; opacity: 1;"  transform=" translate(-455.2077633536, -846.8277121148)" d="M 424.25 753.21 L 450.96 798.35 C 451.0711235692399 798.5386641644119 451.2662957400298 798.6622764798635 451.48435454476663 798.6821000075669 C 451.70241334950344 798.7019235352702 451.91667672191926 798.6155326328374 452.06 798.45 C 457.44 792.35 462.47 786.63 471.35 789.99 Q 471.46 790.03 474.77 791.97 C 478.61 794.23 481.9 792.63 485.77 791.59 Q 492.52 789.78 497.27 794.47 Q 509.33 806.37 521.34 818.3 Q 526.09 823.02 526.98 825.65 C 528.66 830.62 525.96 834.39 522.25 838.13 Q 508.89 851.65 495.48 865.15 C 492.42 868.23 492.94 869.27 494.92 872.6 Q 513.68 904.26 532.55 935.85 Q 533.34 937.16 535.15 938.55 Q 537.51 940.37 537.01 942.1 Q 497.89 923.11 465.47 894.78 C 463.21 892.82 460.3 889.49 457.65 886.95 Q 445.29 875.11 433.94 862.3 C 431.45 859.49 428.72 855.46 425.88 852.12 Q 423.68 849.53 422.61 848.11 Q 389.98 804.41 373.14 752.14 Q 376.26 751.26 379.6 752.93 C 380.77 753.52 381.35 753.64 382.43 752.97 Q 382.83 752.72 383.31 752.7 Q 403.42 752.11 423.51 752.69 Q 423.89 752.7 423.97 752.77 Q 424.1 752.9 424.25 753.21 Z M 517.65 820.85 C 509.94 813.33 502.47 805.46 494.71 798.02 C 488.89 792.45 484.62 797.91 478.31 797.59 C 474.24 797.38 471.05 793.82 467.27 793.42 C 462.09 792.87 457.55 798.55 454.27 802.03 C 454.0312984366756 802.2874152220433 453.96124187575924 802.6571581824351 454.09 802.98 C 455.87 807.63 459.33 812.37 462.01 816.67 C 462.1962459090747 816.9722744395605 462.52826287081416 817.1516399246381 462.88 817.14 C 468.06 816.97 472.14 816.08 477.34 819.18 C 488.68 825.94 489.71 838.94 481.28 848.53 C 481.10489037234413 848.7296865641599 481.0690661426912 849.0122999314215 481.19 849.24 L 483.36 853.52 C 483.4872384449934 853.764285630241 483.7226395186997 853.9338896536474 483.99464095342984 853.977252201213 C 484.26664238815994 854.0206147487787 484.5431110259166 853.9326131431419 484.74 853.74 Q 491.26 847.25 496.94 841.5 C 499.79 838.61 508 838.57 513 839.04 Q 514.76 839.21 516.01 838.02 C 518.13 835.99 522.45 832.33 522.83 829.41 C 523.25 826.2 519.88 823.02 517.65 820.85 Z" stroke-linecap="round" />
</g>
<g transform="matrix(0.7653312908 0 0 0.7653312908 316.8054566629 415.2259628508)" id="6SfMFuHSsC_MQI_s2TumI"  >
<path style="stroke: none; stroke-width: 1; stroke-dasharray: none; stroke-linecap: butt; stroke-dashoffset: 0; stroke-linejoin: miter; stroke-miterlimit: 4; fill: rgb(186,0,0); fill-rule: nonzero; opacity: 1;"  transform=" translate(-753.960465454, -865.823937425)" d="M 841.78 760.48 Q 840.08 761.91 840.7 766.5 Q 843.06 784.1 844.65 808 Q 844.53 808.7 844.74 809.34 C 842.98 811.1 845.61 812.91 844.69 815.41 Q 838.99 813.38 834.48 818.07 Q 829.42 823.32 826.02 826.44 Q 825.54 826.87 825.98 827.35 L 828.49 830.12 C 828.6208690292334 830.2664231217881 828.8060012340447 830.3531976423841 829.0035823877834 830.3607245434789 C 829.2011635415221 830.3682514445737 829.3945272113276 830.2958958144393 829.54 830.16 C 832.19 827.66 837.05 821.63 840.35 820.69 C 840.6291993166627 820.6135373125634 840.9307478154008 820.6607678003176 841.18 820.82 C 846.29 824.12 840.65 828.35 837.5 831.17 C 835.57 832.9 837.05 834.17 838.37 835.56 Q 839.45 836.69 840.79 835.32 Q 843.16 832.91 846.03 830.08 Q 848.41 834.57 847.31 840.21 L 843.79 843.86 C 843.4304850242569 844.2319324923694 843.3650155497918 844.8006985517845 843.63 845.25 Q 845.55 848.4 847.77 847.47 Q 849.03 851.16 849.25 854 Q 852.31 893.19 856.52 932.28 Q 856.56 932.67 856.39 933.01 Q 856.03 933.72 856.85 934.8 C 818.92 955.25 779.11 966.38 735.74 971.73 Q 728.08 972.68 725.89 972.64 L 716.14 960.69 C 715.9189934025154 960.4121600408963 715.8344903803707 960.052103685671 715.91 959.71 Q 715.99 959.34 716.22 959.05 L 717.74 957.53 Q 718.2 957.07 717.59 957.28 Q 716.68 957.61 715.99 958.73 L 715.55 958.9 Q 715.11 959.08 714.79 958.71 L 651.22 883.02 C 651.1015543501913 882.8802445515082 651.0498646548708 882.6959276101721 651.0788025003268 882.5165129683452 C 651.1077403457828 882.3370983265181 651.2143421628904 882.1809601127748 651.37 882.09 L 752.3 821.6 Q 752.76 821.32 752.55 820.83 Q 752.09 819.76 752.25 818.98 C 784.55 804.68 813.7 783.56 839.67 759.16 C 839.8805555118643 758.9654068521622 840.2010736555164 758.9407516103429 840.45 759.1 Q 841.47 759.77 841.78 760.48 Z M 830.06 856.85 C 820.9 852.25 839.21 842.77 827.74 834.95 C 822.29 831.23 819.1 833.54 814.81 837.8 Q 812.12 840.47 809.34 843.15 C 809.1780075067564 843.3049116055951 809.0855545952342 843.5187549385137 809.083671124191 843.7428879926402 C 809.0817876531479 843.967021046767 809.1706337563764 844.1823879008178 809.33 844.34 L 811.89 846.86 C 812.1828264050074 847.1470074521914 812.6549648774368 847.142553315659 812.95 846.85 L 820.72 839.03 C 821.1869122468011 838.5586234071105 821.8250387011691 838.2967684798781 822.4884737782404 838.3043075148448 C 823.1519088553117 838.3118465498115 823.7839200456253 838.5881348593699 824.24 839.07 C 827.87 842.9 821.72 848.93 821.24 853.32 C 820.77 857.59 825.65 862.06 828.7 864.86 Q 829.46 865.56 830.19 864.83 Q 835.1 859.87 840.04 855.04 Q 842.05 853.08 843.14 851.21 C 843.3513109035954 850.8419710506369 843.2616785576524 850.3767364931238 842.93 850.12 L 840.43 848.17 C 840.1213289889091 847.9316750074324 839.6832191935767 847.9617413659357 839.41 848.24 L 831.31 856.64 C 830.9825383885327 856.9728535269942 830.4782533378088 857.0575734155158 830.06 856.85 Z M 825.88 868.1 L 805.71 848.1 C 805.4410719576914 847.8327398186213 805.009608159582 847.8239344349865 804.73 848.08 L 800.42 852.05 Q 800.07 852.38 800.24 852.82 Q 801.54 856.05 804.89 855.71 C 805.2249253024918 855.6727188794032 805.5596496490951 855.7904241441428 805.8 856.03 L 821.83 872 C 822.1142909836785 872.2809516651283 822.5703077476081 872.2853790123509 822.86 872.01 L 825.87 869.1 Q 826.39 868.6 825.88 868.1 Z M 784.61 902.85 Q 787.92 906.74 791.88 902.9 Q 802.04 893.05 812.1 882.74 C 812.7662741029394 882.0586932371531 813.1343325573024 881.1404384638408 813.1230781117005 880.1875620695469 C 813.1118236660986 879.2346856752528 812.7221798537759 878.3253801413109 812.04 877.66 Q 806.76 872.52 801.58 866.96 Q 800.8 866.12 798.49 865.61 Q 798.01 865.5 797.56 865.72 C 793.65 867.64 792.81 864.91 789.68 865.07 Q 787.82 865.17 786.52 866.52 Q 779 874.35 775.12 878.14 C 771.7 881.47 774.66 883.37 774.7 886.77 Q 774.72 888.39 774.21 889.85 C 773.8142435407286 890.9943382850405 774.1272620997452 892.2659761810452 775.01 893.1 C 778.24 896.12 781.58 899.31 784.61 902.85 Z M 753.27 921.99 C 753.345605955521 921.9239188980323 753.3604924267884 921.8120209976238 753.304792758104 921.7284714945973 C 753.2490930894197 921.6449219915709 753.1400771539397 921.6156256956605 753.05 921.66 Q 751.99 922.16 751.44 923.2 Q 751.07 923.9 751.66 923.38 L 753.27 921.99 Z M 740.63 934.21 C 739.93 934.76 738.45 935.91 737.97 936.59 Q 737.44 937.34 738.24 936.89 Q 739.18 936.36 739.84 935.53 Q 740.76 934.67 740.87 934.38 Q 741.05 933.87 740.63 934.21 Z M 734.2235 940.8709 C 734.2761864272177 940.9193977427401 734.488601604517 940.789861206353 734.8140156135324 940.5107875624988 C 735.1394296225478 940.2317139186446 735.5511856055077 939.8259639730228 735.9587 939.3828 C 736.8072417840846 938.4600204451299 737.4061773048367 937.6301155454303 737.2965 937.5291 C 737.2438135727823 937.4806022572599 737.0313983954829 937.610138793647 736.7059843864675 937.8892124375012 C 736.3805703774522 938.1682860813554 735.9688143944923 938.5740360269772 735.5613 939.0172 C 734.7127582159154 939.9399795548701 734.1138226951633 940.7698844545697 734.2235 940.8709 Z M 732.062 943.0665 C 731.9625186546214 942.9481273748512 731.3572389567636 943.2924025876121 730.71 943.8355 C 730.3991024559522 944.0963755544269 730.1199132915261 944.3691667718234 729.9338699229037 944.5938441464299 C 729.7478265542812 944.8185215210365 729.6701739221018 944.9766743281696 729.718 945.0335 C 729.8174813453784 945.1518726251489 730.4227610432364 944.8075974123881 731.07 944.2645 C 731.3808975440479 944.0036244455731 731.660086708474 943.7308332281766 731.8461300770964 943.50615585357 C 732.0321734457189 943.2814784789634 732.1098260778983 943.1233256718303 732.062 943.0665 Z M 726.531 948.5889 C 726.584278018088 948.6367546698683 726.7733047672641 948.5289252492477 727.056490171973 948.2891366012605 C 727.3396755766819 948.0493479532732 727.693818626827 947.6972456484554 728.041 947.3103 C 728.388172159331 946.9233721633778 728.6999512757009 946.5332915875746 728.9077437784036 946.2258787081249 C 729.1155362811063 945.9184658286753 729.2023193114115 945.7189046438017 729.149 945.6711 C 729.0957219819119 945.6232453301318 728.9066952327357 945.7310747507524 728.623509828027 945.9708633987398 C 728.3403244233181 946.210652046727 727.9861813731729 946.5627543515448 727.639 946.9497 C 727.2918278406692 947.336627836622 726.9800487242992 947.7267084124253 726.7722562215965 948.034121291875 C 726.5644637188939 948.3415341713246 726.4776806885885 948.5410953561982 726.531 948.5889 Z" stroke-linecap="round" />
</g>
<g transform="matrix(0.7653312908 0 0 0.7653312908 420.1182623292 401.3092265486)" id="C2VmfM2HhiuRw5mqt7ELn"  >
<path style="stroke: none; stroke-width: 1; stroke-dasharray: none; stroke-linecap: butt; stroke-dashoffset: 0; stroke-linejoin: miter; stroke-miterlimit: 4; fill: rgb(126,0,0); fill-rule: nonzero; opacity: 1;"  transform=" translate(-888.9514254498, -847.64)" d="M 841.78 760.48 L 865.18 787.49 Q 865.07 791.47 867.38 794.1 Q 872.65 800.09 879.87 804.77 L 937.46 870.91 C 937.6262210646736 871.0962940139981 937.6218731658781 871.3789074357027 937.45 871.56 Q 901.84 909.25 856.85 934.8 Q 856.03 933.72 856.39 933.01 Q 856.56 932.67 856.52 932.28 Q 852.31 893.19 849.25 854 Q 849.03 851.16 847.77 847.47 Q 852.35 842.57 857.26 837.52 Q 860.22 834.46 859.02 831.03 Q 856.87 824.89 849.95 823.5 Q 849.53 823.42 849.44 823 L 848.79 819.89 Q 848.7 819.44 848.38 819.12 L 844.69 815.41 C 845.61 812.91 842.98 811.1 844.74 809.34 L 864.66 829.28 Q 865.21 829.83 865.74 829.26 L 868.84 825.91 C 869.1445135272038 825.5861468217248 869.1311251635321 825.0773890022032 868.81 824.77 L 862.35 818.65 C 862.0932541468402 818.4037383800388 862.024588067347 818.0200161711067 862.18 817.7 Q 863.27 815.45 865.29 813.94 C 866.76 812.85 868.19 813.29 869.65 814.08 Q 872.91 815.84 876.36 817.57 C 876.7515546830061 817.7672579112428 877.2250651261985 817.6950275046543 877.54 817.39 L 881.2 813.87 C 881.3435207464921 813.7298371338728 881.4089519992426 813.5280682173146 881.3750009648005 813.3303533696807 C 881.3410499303583 813.1326385220468 881.2120572396448 812.9642555351743 881.03 812.88 L 869.84 807.83 C 869.6226979013705 807.7333169433155 869.4846491860385 807.5203274968032 869.49 807.29 Q 869.6 802.01 866 798.71 C 862.96 795.92 858.59 793.89 855.18 797.32 Q 850.35 802.21 844.65 808 Q 843.06 784.1 840.7 766.5 Q 840.08 761.91 841.78 760.48 Z" stroke-linecap="round" />
</g>
<g transform="matrix(0.7653312908 0 0 0.7653312908 236.3887020431 426.5526564204)" id="zviPH0R75uUDWUdU5oxYU"  >
<path style="stroke: none; stroke-width: 1; stroke-dasharray: none; stroke-linecap: butt; stroke-dashoffset: 0; stroke-linejoin: miter; stroke-miterlimit: 4; fill: rgb(240,70,69); fill-rule: nonzero; opacity: 1;"  transform=" translate(-648.886028303, -880.6236636417)" d="M 571.53 786.74 Q 617.38 830.35 681.25 831.48 Q 717.97 832.13 752.25 818.98 Q 752.09 819.76 752.55 820.83 Q 752.76 821.32 752.3 821.6 L 651.37 882.09 C 651.2143421628904 882.1809601127748 651.1077403457828 882.3370983265181 651.0788025003268 882.5165129683452 C 651.0498646548708 882.6959276101721 651.1015543501913 882.8802445515082 651.22 883.02 L 714.79 958.71 Q 715.11 959.08 715.55 958.9 L 715.99 958.73 Q 715.91 958.99 716.22 959.05 Q 715.99 959.34 715.91 959.71 C 715.8344903803707 960.052103685671 715.9189934025154 960.4121600408963 716.14 960.69 L 725.89 972.64 C 714.05 973.86 704.02 974.1 690.69 974.41 C 640.4 975.58 590.8 966.21 545.09 945.83 Q 545.08 945.11 545.31 944.64 Q 545.51 944.23 546.22 944 C 552.33 942.08 557.83 937.65 563.32 934.46 Q 563.91 934.11 563.43 933.62 L 545.96 916.06 Q 545.68 915.77 546.07 915.87 Q 546.31 915.93 546.5 916.12 Q 555.43 925.07 563.59 933.08 Q 564.31 933.79 565.18 933.27 L 649.44 883.03 Q 650.72 882.27 649.76 881.13 L 571.49 787.79 C 571.3805603202604 787.6680170409398 571.3231280190067 787.510078212492 571.33 787.35 Q 571.34 786.95 571.53 786.74 Z M 568.118 937.8203 C 568.0711140118807 937.7734016473529 568.0075155439015 937.7470533875205 567.9412 937.7470533875205 C 567.8748844560986 937.7470533875205 567.8112859881194 937.7734016473529 567.7644 937.8203 L 567.7503 937.8344 C 567.703401647353 937.8812859881193 567.6770533875206 937.9448844560985 567.6770533875206 938.0111999999999 C 567.6770533875206 938.0775155439014 567.703401647353 938.1411140118806 567.7503 938.188 L 588.822 959.2597 C 588.8688859881194 959.306598352647 588.9324844560986 959.3329466124794 588.9988000000001 959.3329466124794 C 589.0651155439015 959.3329466124794 589.1287140118807 959.306598352647 589.1756 959.2597 L 589.1897 959.2456 C 589.2365983526471 959.1987140118806 589.2629466124794 959.1351155439014 589.2629466124794 959.0688 C 589.2629466124794 959.0024844560986 589.2365983526471 958.9388859881194 589.1897 958.892 L 568.118 937.8203 Z M 711.0777 964.1257 C 711.1924678835472 964.2208914545436 711.7744791900061 963.7090796656638 712.3777 962.9825 C 712.6674071392185 962.6335509437731 712.9233645312561 962.2807170381315 713.0892606405524 962.0016229957905 C 713.2551567498488 961.7225289534495 713.3174012032937 961.5400384339873 713.2623 961.4943 C 713.1475321164528 961.3991085454564 712.5655208099939 961.9109203343362 711.9623 962.6375 C 711.6725928607815 962.9864490562269 711.416635468744 963.3392829618685 711.2507393594476 963.6183770042095 C 711.0848432501513 963.8974710465505 711.0225987967063 964.0799615660127 711.0777 964.1257 Z M 707.17 967.41 L 703.08 971.61 C 702.9861115925288 971.6900812887254 702.9749187112745 971.8311115925287 703.0550000000001 971.9250000000001 C 703.1350812887255 972.0188884074713 703.2761115925288 972.0300812887255 703.37 971.95 Q 705.87 970.18 707.47 967.64 Q 708.42 966.12 707.17 967.41 Z" stroke-linecap="round" />
</g>
<g transform="matrix(0.7653312908 0 0 0.7653312908 407.532875371 361.8870117571)" id="2gDlMMxHsm82tM-MW4d4y"  >
<path style="stroke: none; stroke-width: 1; stroke-dasharray: none; stroke-linecap: butt; stroke-dashoffset: 0; stroke-linejoin: miter; stroke-miterlimit: 4; fill: rgb(240,70,69); fill-rule: nonzero; opacity: 1;"  transform=" translate(-872.5070606254, -796.13)" d="M 865.18 787.49 L 879.87 804.77 Q 872.65 800.09 867.38 794.1 Q 865.07 791.47 865.18 787.49 Z" stroke-linecap="round" />
</g>
<g transform="matrix(0.7653312908 0 0 0.7653312908 113.5990009829 382.9760731828)" id="nRdYuN5qBJNv9wd3CNgC-"  >
<path style="stroke: none; stroke-width: 1; stroke-dasharray: none; stroke-linecap: butt; stroke-dashoffset: 0; stroke-linejoin: miter; stroke-miterlimit: 4; fill: rgb(255,102,0); fill-rule: nonzero; opacity: 1;"  transform=" translate(-488.4460952588, -823.6854673876)" d="M 494.71 798.02 C 502.47 805.46 509.94 813.33 517.65 820.85 C 519.88 823.02 523.25 826.2 522.83 829.41 C 522.45 832.33 518.13 835.99 516.01 838.02 Q 514.76 839.21 513 839.04 C 508 838.57 499.79 838.61 496.94 841.5 Q 491.26 847.25 484.74 853.74 C 484.5431110259166 853.9326131431419 484.26664238815994 854.0206147487787 483.99464095342984 853.977252201213 C 483.7226395186997 853.9338896536474 483.4872384449934 853.764285630241 483.36 853.52 L 481.19 849.24 C 481.0690661426912 849.0122999314215 481.10489037234413 848.7296865641599 481.28 848.53 C 489.71 838.94 488.68 825.94 477.34 819.18 C 472.14 816.08 468.06 816.97 462.88 817.14 C 462.52826287081416 817.1516399246381 462.1962459090747 816.9722744395605 462.01 816.67 C 459.33 812.37 455.87 807.63 454.09 802.98 C 453.96124187575924 802.6571581824351 454.0312984366756 802.2874152220433 454.27 802.03 C 457.55 798.55 462.09 792.87 467.27 793.42 C 471.05 793.82 474.24 797.38 478.31 797.59 C 484.62 797.91 488.89 792.45 494.71 798.02 Z" stroke-linecap="round" />
</g>
<g transform="matrix(0.7653312908 0 0 0.7653312908 400.2387351703 374.4946455282)" id="fbUmmamYadl2NIwyII_dQ"  >
<path style="stroke: none; stroke-width: 1; stroke-dasharray: none; stroke-linecap: butt; stroke-dashoffset: 0; stroke-linejoin: miter; stroke-miterlimit: 4; fill: rgb(240,70,69); fill-rule: nonzero; opacity: 1;"  transform=" translate(-862.9763641964, -812.6034330373)" d="M 844.74 809.34 Q 844.53 808.7 844.65 808 Q 850.35 802.21 855.18 797.32 C 858.59 793.89 862.96 795.92 866 798.71 Q 869.6 802.01 869.49 807.29 C 869.4846491860385 807.5203274968032 869.6226979013705 807.7333169433155 869.84 807.83 L 881.03 812.88 C 881.2120572396448 812.9642555351743 881.3410499303583 813.1326385220468 881.3750009648005 813.3303533696807 C 881.4089519992426 813.5280682173146 881.3435207464921 813.7298371338728 881.2 813.87 L 877.54 817.39 C 877.2250651261985 817.6950275046543 876.7515546830061 817.7672579112428 876.36 817.57 Q 872.91 815.84 869.65 814.08 C 868.19 813.29 866.76 812.85 865.29 813.94 Q 863.27 815.45 862.18 817.7 C 862.024588067347 818.0200161711067 862.0932541468402 818.4037383800388 862.35 818.65 L 868.81 824.77 C 869.1311251635321 825.0773890022032 869.1445135272038 825.5861468217248 868.84 825.91 L 865.74 829.26 Q 865.21 829.83 864.66 829.28 L 844.74 809.34 Z M 852.77 809.02 L 856.61 812.85 C 857.1327201321171 813.3699473695144 857.9772798678829 813.3699473695144 858.5 812.85 L 862.66 808.67 C 864.0149780897518 807.3063998260704 864.1759363314142 805.2675954316808 863.02 804.11 L 861.49 802.58 C 860.9314146286962 802.0238520137688 860.1359198002984 801.7514102831396 859.2787395113332 801.8226856682177 C 858.421559222368 801.8939610532957 857.5730092245637 802.3031067300861 856.92 802.96 L 852.76 807.13 C 852.2428080577927 807.6554669946423 852.2472766726494 808.5000352025511 852.77 809.02 Z" stroke-linecap="round" />
</g>
<g transform="matrix(0.7653312908 0 0 0.7653312908 396.4939666773 370.6085332473)" id="f7P3GNOwRP2PVR6KxJcKu"  >
<path style="stroke: none; stroke-width: 1; stroke-dasharray: none; stroke-linecap: butt; stroke-dashoffset: 0; stroke-linejoin: miter; stroke-miterlimit: 4; fill: rgb(126,0,0); fill-rule: nonzero; opacity: 1;"  transform=" translate(-858.083360947, -807.5257466453)" d="M 852.77 809.02 C 852.2472766726494 808.5000352025511 852.2428080577927 807.6554669946423 852.76 807.13 L 856.92 802.96 C 857.5730092245637 802.3031067300861 858.421559222368 801.8939610532957 859.2787395113332 801.8226856682177 C 860.1359198002984 801.7514102831396 860.9314146286962 802.0238520137688 861.49 802.58 L 863.02 804.11 C 864.1759363314142 805.2675954316808 864.0149780897518 807.3063998260704 862.66 808.67 L 858.5 812.85 C 857.9772798678829 813.3699473695144 857.1327201321171 813.3699473695144 856.61 812.85 L 852.77 809.02 Z" stroke-linecap="round" />
</g>
<g transform="matrix(0.7653312908 0 0 0.7653312908 384.7308855824 388.62313759)" id="UO3GbRWpxizj40SsDQHyp"  >
<path style="stroke: none; stroke-width: 1; stroke-dasharray: none; stroke-linecap: butt; stroke-dashoffset: 0; stroke-linejoin: miter; stroke-miterlimit: 4; fill: rgb(240,70,69); fill-rule: nonzero; opacity: 1;"  transform=" translate(-842.713440449, -831.0640555556)" d="M 844.69 815.41 L 848.38 819.12 Q 848.7 819.44 848.79 819.89 L 849.44 823 Q 849.53 823.42 849.95 823.5 Q 856.87 824.89 859.02 831.03 Q 860.22 834.46 857.26 837.52 Q 852.35 842.57 847.77 847.47 Q 845.55 848.4 843.63 845.25 C 843.3650155497918 844.8006985517845 843.4304850242569 844.2319324923694 843.79 843.86 L 847.31 840.21 Q 849.85 838.52 851.45 836.28 Q 852.94 834.18 852.27 831.89 Q 851.01 827.59 846.03 830.08 Q 843.16 832.91 840.79 835.32 Q 839.45 836.69 838.37 835.56 C 837.05 834.17 835.57 832.9 837.5 831.17 C 840.65 828.35 846.29 824.12 841.18 820.82 C 840.9307478154008 820.6607678003176 840.6291993166627 820.6135373125634 840.35 820.69 C 837.05 821.63 832.19 827.66 829.54 830.16 C 829.3945272113276 830.2958958144393 829.2011635415221 830.3682514445737 829.0035823877834 830.3607245434789 C 828.8060012340447 830.3531976423841 828.6208690292334 830.2664231217881 828.49 830.12 L 825.98 827.35 Q 825.54 826.87 826.02 826.44 Q 829.42 823.32 834.48 818.07 Q 838.99 813.38 844.69 815.41 Z" stroke-linecap="round" />
</g>
<g transform="matrix(0.7653312908 0 0 0.7653312908 389.8215038801 391.1008421733)" id="h2dMj8pLJrtbkvlm1FWgQ"  >
<path style="stroke: none; stroke-width: 1; stroke-dasharray: none; stroke-linecap: butt; stroke-dashoffset: 0; stroke-linejoin: miter; stroke-miterlimit: 4; fill: rgb(126,0,0); fill-rule: nonzero; opacity: 1;"  transform=" translate(-849.3649629448, -834.3014830761)" d="M 847.31 840.21 Q 848.41 834.57 846.03 830.08 Q 851.01 827.59 852.27 831.89 Q 852.94 834.18 851.45 836.28 Q 849.85 838.52 847.31 840.21 Z" stroke-linecap="round" />
</g>
<g transform="matrix(0.7653312908 0 0 0.7653312908 372.0687593242 402.5285538051)" id="O6uMK-_as0iUVz56ArIGy"  >
<path style="stroke: none; stroke-width: 1; stroke-dasharray: none; stroke-linecap: butt; stroke-dashoffset: 0; stroke-linejoin: miter; stroke-miterlimit: 4; fill: rgb(240,70,69); fill-rule: nonzero; opacity: 1;"  transform=" translate(-826.1688062369, -849.2332018866)" d="M 830.06 856.85 C 830.4782533378088 857.0575734155158 830.9825383885327 856.9728535269942 831.31 856.64 L 839.41 848.24 C 839.6832191935767 847.9617413659357 840.1213289889091 847.9316750074324 840.43 848.17 L 842.93 850.12 C 843.2616785576524 850.3767364931238 843.3513109035954 850.8419710506369 843.14 851.21 Q 842.05 853.08 840.04 855.04 Q 835.1 859.87 830.19 864.83 Q 829.46 865.56 828.7 864.86 C 825.65 862.06 820.77 857.59 821.24 853.32 C 821.72 848.93 827.87 842.9 824.24 839.07 C 823.7839200456253 838.5881348593699 823.1519088553117 838.3118465498115 822.4884737782404 838.3043075148448 C 821.8250387011691 838.2967684798781 821.1869122468011 838.5586234071105 820.72 839.03 L 812.95 846.85 C 812.6549648774368 847.142553315659 812.1828264050074 847.1470074521914 811.89 846.86 L 809.33 844.34 C 809.1706337563764 844.1823879008178 809.0817876531479 843.967021046767 809.083671124191 843.7428879926402 C 809.0855545952342 843.5187549385137 809.1780075067564 843.3049116055951 809.34 843.15 Q 812.12 840.47 814.81 837.8 C 819.1 833.54 822.29 831.23 827.74 834.95 C 839.21 842.77 820.9 852.25 830.06 856.85 Z" stroke-linecap="round" />
</g>
<g transform="matrix(0.7653312908 0 0 0.7653312908 362.139612536 410.8097672825)" id="YX4Rq0uxV7pMRsifahs9f"  >
<path style="stroke: none; stroke-width: 1; stroke-dasharray: none; stroke-linecap: butt; stroke-dashoffset: 0; stroke-linejoin: miter; stroke-miterlimit: 4; fill: rgb(240,70,69); fill-rule: nonzero; opacity: 1;"  transform=" translate(-813.1951477612, -860.0536316487)" d="M 805.71 848.1 L 825.88 868.1 Q 826.39 868.6 825.87 869.1 L 822.86 872.01 C 822.5703077476081 872.2853790123509 822.1142909836785 872.2809516651283 821.83 872 L 805.8 856.03 C 805.5596496490951 855.7904241441428 805.2249253024918 855.6727188794032 804.89 855.71 Q 801.54 856.05 800.24 852.82 Q 800.07 852.38 800.42 852.05 L 804.73 848.08 C 805.009608159582 847.8239344349865 805.4410719576914 847.8327398186213 805.71 848.1 Z" stroke-linecap="round" />
</g>
<g transform="matrix(0.7653312908 0 0 0.7653312908 346.9117496024 430.2222822596)" id="JvqzgEGm4GA3ZCt7YE0qX"  >
<path style="stroke: none; stroke-width: 1; stroke-dasharray: none; stroke-linecap: butt; stroke-dashoffset: 0; stroke-linejoin: miter; stroke-miterlimit: 4; fill: rgb(240,70,69); fill-rule: nonzero; opacity: 1;"  transform=" translate(-793.298061211, -885.4184837191)" d="M 784.61 902.85 C 781.58 899.31 778.24 896.12 775.01 893.1 C 774.1272620997452 892.2659761810452 773.8142435407286 890.9943382850405 774.21 889.85 Q 774.72 888.39 774.7 886.77 C 774.66 883.37 771.7 881.47 775.12 878.14 Q 779 874.35 786.52 866.52 Q 787.82 865.17 789.68 865.07 C 792.81 864.91 793.65 867.64 797.56 865.72 Q 798.01 865.5 798.49 865.61 Q 800.8 866.12 801.58 866.96 Q 806.76 872.52 812.04 877.66 C 812.7221798537759 878.3253801413109 813.1118236660986 879.2346856752528 813.1230781117005 880.1875620695469 C 813.1343325573024 881.1404384638408 812.7662741029394 882.0586932371531 812.1 882.74 Q 802.04 893.05 791.88 902.9 Q 787.92 906.74 784.61 902.85 Z M 787.74 903.07 C 791.24 903.04 792.68 899.79 792.34 896.77 C 791.97 893.49 798.6 887.97 800.89 885.63 C 804.15 882.28 808.34 886.17 811.13 881.4 Q 812.12 879.7 810.83 878.4 Q 805.65 873.21 800.44 867.96 C 800.181295950884 867.6952930526261 799.837173546985 867.5321009847977 799.47 867.5 Q 797.2 867.29 795.11 868.27 C 794.8723998429572 868.3851728390036 794.5983774155181 868.3995950720267 794.35 868.31 L 789.4 866.43 C 789.0350471048616 866.2960509937416 788.6255385050324 866.3857528775137 788.35 866.66 L 775.46 879.73 C 775.2330967899175 879.9570483784702 775.0887698863952 880.252742522272 775.05 880.57 Q 774.75 882.93 776.08 884.99 C 776.2292195690957 885.2236696136866 776.2993809158276 885.4937907986044 776.28 885.76 L 775.89 891.15 C 775.858448137959 891.5747852365082 776.0121274028838 891.9882556397584 776.31 892.28 L 786.84 902.71 Q 787.21 903.08 787.74 903.07 Z" stroke-linecap="round" />
</g>
<g transform="matrix(0.7653312908 0 0 0.7653312908 346.9616845683 429.6882320624)" id="yzanutXNQy65p0AKKcpIN"  >
<path style="stroke: none; stroke-width: 1; stroke-dasharray: none; stroke-linecap: butt; stroke-dashoffset: 0; stroke-linejoin: miter; stroke-miterlimit: 4; fill: rgb(186,0,0); fill-rule: nonzero; opacity: 1;"  transform=" translate(-793.3633074207, -884.7206810764)" d="M 792.34 896.77 C 792.68 899.79 791.24 903.04 787.74 903.07 Q 787.21 903.08 786.84 902.71 L 776.31 892.28 C 776.0121274028838 891.9882556397584 775.858448137959 891.5747852365082 775.89 891.15 L 776.28 885.76 C 776.2993809158276 885.4937907986044 776.2292195690957 885.2236696136866 776.08 884.99 Q 774.75 882.93 775.05 880.57 C 775.0887698863952 880.252742522272 775.2330967899175 879.9570483784702 775.46 879.73 L 788.35 866.66 C 788.6255385050324 866.3857528775137 789.0350471048616 866.2960509937416 789.4 866.43 L 794.35 868.31 C 794.5983774155181 868.3995950720267 794.8723998429572 868.3851728390036 795.11 868.27 Q 797.2 867.29 799.47 867.5 C 799.837173546985 867.5321009847977 800.181295950884 867.6952930526261 800.44 867.96 Q 805.65 873.21 810.83 878.4 Q 812.12 879.7 811.13 881.4 C 808.34 886.17 804.15 882.28 800.89 885.63 C 798.6 887.97 791.97 893.49 792.34 896.77 Z M 797.62 882.58 C 797.62 880.72878890092 796.8846092542494 878.9533985888852 795.5756053326821 877.6443946673179 C 794.2666014111148 876.3353907457506 792.49121109908 875.6 790.64 875.6 C 788.7887889009199 875.6 787.0133985888851 876.3353907457506 785.7043946673178 877.6443946673179 C 784.3953907457505 878.9533985888852 783.66 880.72878890092 783.66 882.58 C 783.66 886.4349475538189 786.7850524461811 889.56 790.64 889.56 C 794.4949475538189 889.56 797.62 886.4349475538189 797.62 882.58 Z" stroke-linecap="round" />
</g>
<g transform="matrix(0.7653312908 0 0 0.7653312908 344.8774521847 428.0499018509)" id="wUu6ljF9fU-nA3_FnitYb"  >
<path style="stroke: none; stroke-width: 1; stroke-dasharray: none; stroke-linecap: butt; stroke-dashoffset: 0; stroke-linejoin: miter; stroke-miterlimit: 4; fill: rgb(240,70,69); fill-rule: nonzero; opacity: 1;"  transform=" translate(-6.98, -6.98)" d="M 0 6.98 C 0 3.1250500000000003 3.12505 0 6.98 0 C 10.834950000000001 0 13.96 3.12505 13.96 6.98 C 13.96 10.834950000000001 10.834950000000001 13.96 6.98 13.96 C 3.1250500000000003 13.96 0 10.834950000000001 0 6.98 z" stroke-linecap="round" />
</g>
<g transform="matrix(0.7653312908 0 0 0.7653312908 315.5054229066 458.7509323897)" id="1tUskBPgQeQdJyX7aG7p8"  >
<path style="stroke: none; stroke-width: 1; stroke-dasharray: none; stroke-linecap: butt; stroke-dashoffset: 0; stroke-linejoin: miter; stroke-miterlimit: 4; fill: rgb(248,156,115); fill-rule: nonzero; opacity: 1;"  transform=" translate(-752.2618105423, -922.6946939972)" d="M 753.27 921.99 L 751.66 923.38 Q 751.07 923.9 751.44 923.2 Q 751.99 922.16 753.05 921.66 C 753.1400771539397 921.6156256956605 753.2490930894197 921.6449219915709 753.304792758104 921.7284714945973 C 753.3604924267884 921.8120209976238 753.345605955521 921.9239188980323 753.27 921.99 Z" stroke-linecap="round" />
</g>
<g transform="matrix(0.7653312908 0 0 0.7653312908 305.5797304635 468.6163432465)" id="4EXtYckUPw419Fvuy8OFc"  >
<path style="stroke: none; stroke-width: 1; stroke-dasharray: none; stroke-linecap: butt; stroke-dashoffset: 0; stroke-linejoin: miter; stroke-miterlimit: 4; fill: rgb(248,156,115); fill-rule: nonzero; opacity: 1;"  transform=" translate(-739.2926655958, -935.5850735946)" d="M 737.97 936.59 C 738.45 935.91 739.93 934.76 740.63 934.21 Q 741.05 933.87 740.87 934.38 Q 740.76 934.67 740.55 934.87 Q 739.18 936.36 738.24 936.89 Q 737.44 937.34 737.97 936.59 Z" stroke-linecap="round" />
</g>
<g transform="matrix(0.7653312908 0 0 0.7653312908 302.8760709429 471.3829595386)" id="02WctKruxHNmeOnWvYFmn"  >
<path style="stroke: none; stroke-width: 1; stroke-dasharray: none; stroke-linecap: butt; stroke-dashoffset: 0; stroke-linejoin: miter; stroke-miterlimit: 4; fill: rgb(248,156,115); fill-rule: nonzero; opacity: 1;"  transform=" translate(-2.27, -0.27)" d="M 0 0.27 C 0 0.12088000000000002 1.01631 0 2.27 0 C 3.52369 0 4.54 0.12088 4.54 0.27 C 4.54 0.41912000000000005 3.52369 0.54 2.27 0.54 C 1.01631 0.54 0 0.41912000000000005 0 0.27 z" stroke-linecap="round" />
</g>
<g transform="matrix(0.7653312908 0 0 0.7653312908 182.4971122055 478.5311537951)" id="BrCzCfRb7gP5PSXJsOBRH"  >
<path style="stroke: none; stroke-width: 1; stroke-dasharray: none; stroke-linecap: butt; stroke-dashoffset: 0; stroke-linejoin: miter; stroke-miterlimit: 4; fill: rgb(248,156,115); fill-rule: nonzero; opacity: 1;"  transform=" translate(-0.26, -15.15)" d="M 0 30.3 L 0 0 L 0.52 0 L 0.52 30.3 z" stroke-linecap="round" />
</g>
<g transform="matrix(0.7653312908 0 0 0.7653312908 299.1489075565 475.0948162992)" id="WQjrdWtFBvVJ3uoi5FNkj"  >
<path style="stroke: none; stroke-width: 1; stroke-dasharray: none; stroke-linecap: butt; stroke-dashoffset: 0; stroke-linejoin: miter; stroke-miterlimit: 4; fill: rgb(248,156,115); fill-rule: nonzero; opacity: 1;"  transform=" translate(-1.53, -0.28)" d="M 0 0.28 C 0 0.12536000000000003 0.685 0 1.53 0 C 2.375 0 3.06 0.12536 3.06 0.28 C 3.06 0.43464 2.375 0.56 1.53 0.56 C 0.685 0.56 0 0.43464 0 0.28 z" stroke-linecap="round" />
</g>
<g transform="matrix(0.7653312908 0 0 0.7653312908 296.8146471195 477.4520366751)" id="kKpok6O4NpRDX_LWLh8Ze"  >
<path style="stroke: none; stroke-width: 1; stroke-dasharray: none; stroke-linecap: butt; stroke-dashoffset: 0; stroke-linejoin: miter; stroke-miterlimit: 4; fill: rgb(248,156,115); fill-rule: nonzero; opacity: 1;"  transform=" translate(-1.96, -0.27)" d="M 0 0.27 C 0 0.12088000000000002 0.87752 0 1.96 0 C 3.0424800000000003 0 3.92 0.12088 3.92 0.27 C 3.92 0.41912000000000005 3.04248 0.54 1.96 0.54 C 0.8775199999999999 0.54 0 0.41912000000000005 0 0.27 z" stroke-linecap="round" />
</g>
<g transform="matrix(0.7653312908 0 0 0.7653312908 288.5235863895 485.8457273743)" id="nwFdTdU9AUj9LJYUbW5jy"  >
<path style="stroke: none; stroke-width: 1; stroke-dasharray: none; stroke-linecap: butt; stroke-dashoffset: 0; stroke-linejoin: miter; stroke-miterlimit: 4; fill: rgb(248,156,115); fill-rule: nonzero; opacity: 1;"  transform=" translate(-717.0067035844, -958.0973951655)" d="M 716.22 959.05 Q 715.91 958.99 715.99 958.73 Q 716.68 957.61 717.59 957.28 Q 718.2 957.07 717.74 957.53 L 716.22 959.05 Z" stroke-linecap="round" />
</g>
<g transform="matrix(0.7653312908 0 0 0.7653312908 284.8219057918 489.4524313155)" id="y9UdkM6AkZ8i3Hv_0wfsl"  >
<path style="stroke: none; stroke-width: 1; stroke-dasharray: none; stroke-linecap: butt; stroke-dashoffset: 0; stroke-linejoin: miter; stroke-miterlimit: 4; fill: rgb(248,156,115); fill-rule: nonzero; opacity: 1;"  transform=" translate(-1.71, -0.27)" d="M 0 0.27 C 0 0.12088000000000002 0.76559 0 1.71 0 C 2.65441 0 3.42 0.12088 3.42 0.27 C 3.42 0.41912000000000005 2.65441 0.54 1.71 0.54 C 0.76559 0.54 0 0.41912000000000005 0 0.27 z" stroke-linecap="round" />
</g>
<g transform="matrix(0.7653312908 0 0 0.7653312908 279.7747004729 494.3708047139)" id="QTEu0FUfweWchhXIU32XE"  >
<path style="stroke: none; stroke-width: 1; stroke-dasharray: none; stroke-linecap: butt; stroke-dashoffset: 0; stroke-linejoin: miter; stroke-miterlimit: 4; fill: rgb(248,156,115); fill-rule: nonzero; opacity: 1;"  transform=" translate(-705.575201931, -969.2364632286)" d="M 707.47 967.64 Q 705.87 970.18 703.37 971.95 C 703.2761115925288 972.0300812887255 703.1350812887255 972.0188884074713 703.0550000000001 971.925 C 702.9749187112745 971.8311115925287 702.9861115925288 971.6900812887254 703.08 971.61 L 707.17 967.41 Q 708.42 966.12 707.47 967.64 Z" stroke-linecap="round" />
</g>
</svg>